<?xml version="1.0" encoding="UTF-8"?>
<svg id="Camada_1" data-name="Camada 1" xmlns="http://www.w3.org/2000/svg" xmlns:xlink="http://www.w3.org/1999/xlink" viewBox="0 0 200 80">
  <defs>
    <style>
      .cls-1 {
        fill: url(#Gradiente_sem_nome_11);
      }

      .cls-2 {
        fill: #ff691a;
      }

      .cls-3 {
        fill: url(#Gradiente_sem_nome_12);
      }

      .cls-4 {
        fill: #428ac9;
      }

      .cls-5 {
        fill: #428bca;
      }

      .cls-6 {
        fill: #fedb9b;
      }

      .cls-7 {
        fill: #fd6d07;
      }

      .cls-8 {
        fill: #6698aa;
      }

      .cls-9 {
        fill: url(#Gradiente_sem_nome_8);
      }
    </style>
    <linearGradient id="Gradiente_sem_nome_11" data-name="Gradiente sem nome 11" x1="4108.74" y1="-1800.73" x2="4108.93" y2="-1635.9" gradientTransform="translate(-959.2 452.4) scale(.24)" gradientUnits="userSpaceOnUse">
      <stop offset="0" stop-color="#fd5800"/>
      <stop offset=".39" stop-color="#fed128"/>
      <stop offset=".73" stop-color="#428ac9"/>
      <stop offset="1" stop-color="#428ac9"/>
    </linearGradient>
    <linearGradient id="Gradiente_sem_nome_12" data-name="Gradiente sem nome 12" x1="3538.77" y1="-1824.69" x2="3538.8" y2="-1747.74" gradientTransform="translate(-815.2 458.88) scale(.24)" gradientUnits="userSpaceOnUse">
      <stop offset="0" stop-color="#fd5800"/>
      <stop offset=".57" stop-color="#fed129"/>
      <stop offset="1" stop-color="#5792b8"/>
    </linearGradient>
    <linearGradient id="Gradiente_sem_nome_8" data-name="Gradiente sem nome 8" x1="3557.58" y1="-2102.15" x2="3557.63" y2="-2025.19" gradientTransform="translate(-819.76 533.76) scale(.24)" gradientUnits="userSpaceOnUse">
      <stop offset="0" stop-color="#feb31e"/>
      <stop offset=".13" stop-color="#fcd22a"/>
      <stop offset=".6" stop-color="#438bc8"/>
      <stop offset="1" stop-color="#428ac9"/>
    </linearGradient>
  </defs>
  <path class="cls-5" d="M190.43,55.13l.14.58-.49,1.81c-.01.05-.02.1-.02.15,0,.12.05.2.16.25l.1.04c.06.03.09.07.09.14,0,.09-.07.14-.2.14h-.71c-.07,0-.12-.01-.16-.04-.04-.03-.06-.07-.06-.12,0-.05.04-.1.12-.13.08-.03.13-.06.17-.09.04-.03.07-.07.11-.11.05-.08.1-.18.13-.3l.63-2.3ZM190.63,54.42h1.13l.78,3.28c.01.06.03.11.05.15.02.04.05.06.11.09.05.02.08.04.1.06.02.02.03.05.03.08,0,.1-.07.15-.22.15h-1.39c-.06,0-.1-.01-.13-.04-.03-.03-.05-.06-.05-.11,0-.04,0-.07.02-.08s.05-.04.1-.07c.04-.02.06-.04.08-.06.01-.02.02-.05.02-.08,0-.03,0-.06,0-.08l-.09-.41h-.78l.08-.33h.63l-.51-2.27.07-.27ZM188.04,58.31v-.34c.15-.01.3-.07.46-.16.09-.05.16-.13.23-.22.07-.09.12-.19.15-.3.02-.06.04-.1.06-.13.03-.03.06-.04.1-.04.04,0,.08.02.11.05.03.03.04.08.04.13,0,.08-.03.19-.1.3-.06.12-.15.23-.25.33-.12.12-.25.21-.38.27-.13.06-.27.09-.44.1ZM188.03,54.68v-.34c.09.01.16.03.22.05.06.02.16.05.31.11.1.03.16.05.19.05.05,0,.1-.02.12-.07l.04-.07s.06-.07.13-.07c.05,0,.09.01.11.04.03.03.04.07.04.13v1.16c0,.07-.02.13-.05.16-.03.03-.07.05-.11.05s-.08-.01-.11-.04c-.03-.03-.05-.08-.06-.14-.04-.15-.08-.26-.11-.35-.08-.18-.17-.32-.27-.43-.07-.07-.14-.13-.21-.17-.07-.04-.15-.07-.23-.08ZM187.81,54.34v.34c-.11.02-.19.07-.25.15s-.08.19-.08.34v2.43s0,.09.03.14c.02.05.04.09.07.12.03.04.06.06.1.08.03.01.08.03.14.03v.34c-.36,0-.68-.09-.94-.28-.23-.17-.41-.39-.53-.67-.12-.28-.18-.61-.18-1,0-.28.04-.54.11-.79.08-.24.19-.46.34-.63.15-.18.33-.33.53-.44.21-.11.41-.16.6-.16h.06ZM185.65,58.23h-1.32c-.07,0-.12-.01-.16-.04-.04-.03-.05-.06-.05-.11,0-.08.04-.13.11-.15.06-.02.1-.03.11-.04.01,0,.02-.02.03-.03.02-.03.03-.08.03-.14v-2.8c0-.07-.01-.11-.03-.14-.01-.02-.02-.03-.03-.03,0,0-.04-.02-.11-.04-.07-.02-.11-.07-.11-.15,0-.05.02-.08.05-.11.04-.03.09-.04.16-.04h1.39c.07,0,.12.01.15.04.04.02.06.06.06.11,0,.08-.04.13-.11.15-.06.02-.1.03-.11.04,0,0-.02.01-.03.03-.02.03-.03.08-.03.14v2.8c0,.07.01.11.03.14.01.02.02.03.03.03.01,0,.05.02.11.04.07.02.11.07.11.15,0,.05-.02.08-.06.11-.04.02-.09.04-.15.04h-.07ZM183.46,56.55l-.3-.5v-.77c0-.16-.02-.28-.07-.36-.04-.08-.12-.16-.24-.22-.04-.02-.07-.04-.08-.06-.01-.02-.02-.05-.02-.08,0-.05.02-.09.05-.11.03-.02.09-.04.16-.04h.7c.1,0,.16.01.19.04.03.03.05.07.05.11s0,.07-.03.09c-.02.02-.06.04-.13.08-.1.05-.17.13-.22.23-.04.08-.05.18-.05.31v1.27ZM180.8,55.4l.3.49v1.5c0,.13.02.24.06.32.04.08.11.15.21.21l.08.05s.07.07.07.13c0,.04-.02.08-.05.11-.03.02-.09.04-.18.04h-.65c-.17,0-.25-.05-.25-.15,0-.03,0-.06.03-.08.02-.02.06-.05.12-.08.18-.1.27-.28.27-.54v-1.99ZM181.97,54.42l1.49,2.58v1.23h-.76l-1.9-3.27c-.04-.07-.07-.12-.1-.15-.03-.03-.06-.05-.1-.06l-.11-.04s-.05-.03-.07-.05c-.02-.02-.03-.05-.03-.08,0-.03,0-.06.03-.09.02-.03.04-.05.07-.06.03-.01.12-.02.26-.02h1.22ZM178.59,53.88l-.13.22-.03.05s-.06.04-.14.04h-.4c-.09,0-.13-.02-.13-.07,0-.02.01-.05.05-.08l.54-.57c.07-.07.13-.11.18-.11h.14c.07,0,.14.04.2.11l.55.57.04.04s.01.03.01.04c0,.02,0,.04-.02.05-.01,0-.04.01-.08.01h-.46c-.05,0-.1,0-.13-.02-.03-.01-.06-.04-.08-.07l-.13-.22ZM177.89,55.13l.14.58-.49,1.81c-.01.05-.02.1-.02.15,0,.12.05.2.16.25l.1.04c.06.03.09.07.09.14,0,.09-.07.14-.2.14h-.71c-.07,0-.12-.01-.16-.04-.04-.03-.06-.07-.06-.12,0-.05.04-.1.12-.13.08-.03.13-.06.17-.09.04-.03.07-.07.11-.11.05-.08.1-.18.13-.3l.63-2.3ZM178.08,54.42h1.13l.78,3.28c.01.06.03.11.05.15.02.04.05.06.11.09.05.02.08.04.1.06.02.02.03.05.03.08,0,.1-.07.15-.22.15h-1.39c-.06,0-.1-.01-.13-.04-.03-.03-.05-.06-.05-.11,0-.04,0-.07.02-.08s.05-.04.1-.07c.04-.02.06-.04.08-.06.01-.02.02-.05.02-.08,0-.03,0-.06,0-.08l-.09-.41h-.78l.08-.33h.63l-.51-2.27.07-.27ZM175.49,58.31v-.34c.15-.01.3-.07.46-.16.09-.05.16-.13.23-.22.07-.09.12-.19.15-.3.02-.06.04-.1.06-.13.03-.03.06-.04.1-.04.04,0,.08.02.11.05.03.03.04.08.04.13,0,.08-.03.19-.1.3-.06.12-.15.23-.25.33-.12.12-.25.21-.38.27-.13.06-.27.09-.44.1ZM175.48,54.68v-.34c.09.01.16.03.22.05.06.02.16.05.31.11.1.03.16.05.19.05.05,0,.1-.02.12-.07l.04-.07s.06-.07.13-.07c.05,0,.09.01.11.04.03.03.04.07.04.13v1.16c0,.07-.02.13-.05.16-.03.03-.07.05-.11.05s-.08-.01-.11-.04c-.03-.03-.05-.08-.06-.14-.04-.15-.08-.26-.11-.35-.08-.18-.17-.32-.27-.43-.07-.07-.14-.13-.21-.17-.07-.04-.15-.07-.23-.08ZM175.26,54.34v.34c-.11.02-.19.07-.25.15s-.08.19-.08.34v2.43s0,.09.03.14c.02.05.04.09.07.12.03.04.06.06.1.08.03.01.08.03.14.03v.34c-.36,0-.68-.09-.94-.28-.23-.17-.41-.39-.53-.67-.12-.28-.18-.61-.18-1,0-.28.04-.54.11-.79.08-.24.19-.46.34-.63.15-.18.33-.33.53-.44.21-.11.41-.16.6-.16h.06ZM172.26,58.23v-.3c.12-.02.22-.04.3-.08.08-.03.16-.08.24-.15.08-.07.14-.14.19-.21.05-.07.09-.17.14-.29.02-.06.04-.1.06-.12.02-.02.05-.03.09-.03.05,0,.09.02.11.05.02.03.03.08.03.16v.99h-1.16ZM172.24,56.45v-.32c.11-.05.19-.11.24-.17s.09-.14.11-.25c.01-.07.03-.12.06-.15.02-.03.06-.04.1-.04.06,0,.1.02.12.07.01.02.02.08.02.16v1.06c0,.09-.01.15-.03.18-.02.03-.05.05-.11.05-.04,0-.08-.01-.1-.04-.02-.03-.04-.07-.06-.13-.03-.13-.08-.23-.14-.3-.06-.07-.13-.11-.23-.14ZM172.26,54.42h1.13v.99c0,.06-.01.1-.03.13-.02.03-.06.04-.11.04-.04,0-.07,0-.09-.03-.02-.02-.04-.05-.05-.1-.07-.22-.18-.38-.31-.49-.14-.11-.31-.18-.53-.2v-.33ZM172.01,54.42v3.81h-1.32c-.07,0-.12-.01-.16-.04-.04-.03-.05-.06-.05-.11,0-.08.04-.13.11-.15.06-.02.1-.03.11-.04.01,0,.02-.02.03-.03.02-.03.03-.08.03-.14v-2.8c0-.07-.01-.11-.03-.14-.01-.02-.02-.03-.03-.03,0,0-.04-.02-.11-.04-.07-.02-.11-.07-.11-.15,0-.05.02-.08.05-.11.04-.03.09-.04.16-.04h1.32ZM166.5,55.7l.3.84v.84c0,.09,0,.15,0,.18,0,.04.02.08.04.12.04.08.09.14.16.18l.1.07c.07.04.11.09.11.14,0,.1-.07.14-.21.14h-.7c-.14,0-.21-.05-.21-.14,0-.03,0-.05.02-.07.01-.02.04-.04.07-.06.21-.11.31-.31.31-.58v-1.69ZM167.58,54.42l.55,1.57.24-.85v.93l-.65,2.17h-.15l-1.08-3.22c-.04-.11-.08-.18-.12-.22-.02-.02-.07-.04-.13-.05-.12-.03-.18-.08-.18-.17,0-.05.02-.09.05-.11.04-.03.09-.04.15-.04h1.31ZM168.61,54.42h1.32c.14,0,.21.05.21.15,0,.08-.04.13-.11.15-.06.02-.1.03-.11.04,0,0-.02.01-.03.03-.02.03-.03.08-.03.14v2.8c0,.07.01.11.03.14.01.02.02.03.03.03.01,0,.05.02.11.04.07.02.11.07.11.15,0,.1-.07.15-.21.15h-1.41c-.08,0-.14-.01-.19-.04-.04-.03-.06-.06-.06-.11,0-.08.04-.13.13-.15.07-.02.12-.03.13-.03.01,0,.03-.02.04-.03.03-.03.04-.09.04-.16v-3.28ZM164.29,54.64v-.3c.2,0,.38.05.55.12.17.07.32.18.47.32.38.37.57.89.57,1.55s-.18,1.15-.54,1.51c-.28.28-.63.43-1.04.47v-.31s.09-.03.11-.04c.03-.02.05-.04.08-.08.05-.08.08-.19.08-.35v-2.5c0-.1-.02-.18-.05-.23-.02-.04-.05-.07-.08-.09-.03-.02-.07-.04-.13-.06ZM164.07,54.64c-.1.03-.16.08-.2.14-.04.06-.06.14-.06.25v2.5c0,.16.02.28.07.35.04.06.1.1.19.12v.31c-.41-.03-.76-.19-1.04-.47-.36-.36-.54-.87-.54-1.51,0-.32.05-.62.14-.88.1-.26.24-.49.43-.67.14-.14.3-.25.46-.32.17-.07.35-.11.55-.12v.3ZM161.09,56.36c.17.03.3.05.39.09.09.03.18.07.25.13.08.06.14.13.18.21.04.08.06.16.06.25v.58c0,.06.02.09.06.09.01,0,.03,0,.04-.01.01,0,.03-.03.04-.05.05-.06.09-.1.14-.1.03,0,.06.02.1.05.03.03.05.07.05.1,0,.06-.03.13-.08.21-.05.08-.12.16-.2.22-.08.06-.16.11-.25.13-.09.03-.19.04-.32.04-.25,0-.44-.07-.58-.21-.14-.14-.21-.34-.21-.59v-.47c0-.1,0-.16,0-.18,0-.07-.04-.14-.08-.19-.05-.07-.13-.1-.23-.11v-.3c.1-.01.17-.04.22-.08.04-.03.06-.07.08-.11.01-.04.02-.11.02-.19v-.74c0-.12-.02-.2-.07-.26-.04-.06-.13-.1-.25-.14v-.31h.07c.21,0,.38,0,.53.02.22.02.41.09.58.21.24.17.37.42.37.74,0,.26-.08.48-.25.65-.07.07-.15.13-.24.17-.09.04-.23.1-.42.15ZM160.23,54.42v3.28c0,.07.01.12.04.16.01.02.03.03.04.04.01,0,.06.01.13.03.09.02.13.07.13.15,0,.05-.02.09-.07.12-.04.02-.09.03-.18.03h-1.41c-.07,0-.12-.01-.16-.04-.04-.03-.05-.06-.05-.11,0-.08.04-.13.11-.15.06-.02.1-.03.11-.04.01,0,.02-.02.03-.03.02-.03.03-.08.03-.14v-2.8c0-.07-.01-.11-.03-.14-.01-.02-.02-.03-.03-.03,0,0-.04-.02-.11-.04-.07-.02-.11-.07-.11-.15,0-.05.02-.08.05-.11.04-.03.09-.04.16-.04h1.32ZM155.31,54.42h.73v.34c-.09.05-.16.11-.2.19-.08.13-.13.28-.16.45l-.03.17c0,.05-.03.1-.06.13-.03.03-.07.04-.11.04s-.09-.02-.12-.05c-.03-.03-.04-.08-.04-.13v-1.14ZM158.48,54.42v1.14c0,.05-.02.1-.05.13-.03.03-.07.05-.12.05s-.09-.01-.12-.04c-.03-.03-.05-.07-.06-.13l-.03-.17c-.03-.17-.08-.32-.16-.45-.05-.08-.12-.14-.2-.19v-.34h.73ZM157.51,54.42v3.28c0,.07.01.12.04.16.01.02.03.03.04.04.01,0,.06.01.13.03.09.02.13.07.13.15,0,.05-.02.09-.07.12-.04.02-.1.03-.18.03h-1.43c-.08,0-.14-.01-.19-.04-.04-.03-.06-.06-.06-.11,0-.08.04-.13.13-.15.07-.02.12-.03.13-.03.01,0,.03-.02.04-.04.03-.03.04-.08.04-.16v-3.28h1.24ZM153.96,58.23v-.3c.12-.02.22-.04.3-.08.08-.03.16-.08.24-.15.08-.07.14-.14.19-.21.05-.07.09-.17.14-.29.02-.06.04-.1.06-.12.02-.02.05-.03.09-.03.05,0,.09.02.11.05.02.03.03.08.03.16v.99h-1.16ZM153.94,56.45v-.32c.11-.05.19-.11.24-.17.05-.06.09-.14.11-.25.01-.07.03-.12.06-.15.02-.03.06-.04.1-.04.06,0,.1.02.12.07.01.02.02.08.02.16v1.06c0,.09-.01.15-.03.18-.02.03-.05.05-.11.05-.04,0-.08-.01-.1-.04-.02-.03-.04-.07-.06-.13-.03-.13-.08-.23-.14-.3-.06-.07-.13-.11-.23-.14ZM153.95,54.42h1.13v.99c0,.06-.01.1-.03.13-.02.03-.06.04-.11.04-.04,0-.07,0-.09-.03-.02-.02-.04-.05-.05-.1-.07-.22-.18-.38-.31-.49-.14-.11-.31-.18-.53-.2v-.33ZM153.71,54.42v3.81h-1.32c-.07,0-.12-.01-.16-.04-.04-.03-.05-.06-.05-.11,0-.08.04-.13.11-.15.06-.02.1-.03.11-.04.01,0,.02-.02.03-.03.02-.03.03-.08.03-.14v-2.8c0-.07-.01-.11-.03-.14-.01-.02-.02-.03-.03-.03,0,0-.04-.02-.11-.04-.07-.02-.11-.07-.11-.15,0-.05.02-.08.05-.11.04-.03.09-.04.16-.04h1.32ZM151,58.23v-.31c.09-.02.16-.04.22-.06.05-.02.11-.05.15-.09.08-.06.15-.15.22-.25.07-.11.12-.23.16-.36.03-.1.06-.17.08-.2.03-.03.06-.05.11-.05.05,0,.09.02.11.06.01.02.02.06.02.12v1.14h-1.07ZM150.77,58.23h-1.32c-.07,0-.12-.01-.16-.04-.04-.03-.05-.06-.05-.11,0-.08.04-.13.11-.15.06-.02.1-.03.11-.04.01,0,.02-.02.03-.03.02-.03.03-.08.03-.14v-2.8c0-.07-.01-.11-.03-.14-.01-.02-.02-.03-.03-.03,0,0-.04-.02-.11-.04-.07-.02-.11-.07-.11-.15,0-.05.02-.08.05-.11.04-.03.09-.04.16-.04h1.41c.08,0,.14.01.18.03.05.03.07.07.07.12,0,.08-.04.13-.13.15-.07.02-.12.03-.13.03-.01,0-.03.02-.04.03-.03.03-.04.09-.04.16v3.29ZM147.78,58.23v-.3c.12-.02.22-.04.3-.08.08-.03.16-.08.24-.15.08-.07.14-.14.19-.21.05-.07.09-.17.14-.29.02-.06.04-.1.06-.12.02-.02.05-.03.09-.03.05,0,.09.02.11.05.02.03.03.08.03.16v.99h-1.16ZM147.76,56.45v-.32c.11-.05.19-.11.24-.17s.09-.14.11-.25c.01-.07.03-.12.06-.15.02-.03.06-.04.1-.04.06,0,.1.02.12.07.01.02.02.08.02.16v1.06c0,.09-.01.15-.03.18-.02.03-.05.05-.11.05-.04,0-.08-.01-.1-.04-.02-.03-.04-.07-.06-.13-.03-.13-.08-.23-.14-.3-.06-.07-.13-.11-.23-.14ZM147.77,54.42h1.13v.99c0,.06-.01.1-.03.13-.02.03-.06.04-.11.04-.04,0-.07,0-.09-.03-.02-.02-.04-.05-.05-.1-.07-.22-.18-.38-.31-.49-.14-.11-.31-.18-.53-.2v-.33ZM147.52,54.42v3.81h-1.32c-.07,0-.12-.01-.16-.04-.04-.03-.05-.06-.05-.11,0-.08.04-.13.11-.15.06-.02.1-.03.11-.04.01,0,.02-.02.03-.03.02-.03.03-.08.03-.14v-2.8c0-.07-.01-.11-.03-.14-.01-.02-.02-.03-.03-.03,0,0-.04-.02-.11-.04-.07-.02-.11-.07-.11-.15,0-.05.02-.08.05-.11.04-.03.09-.04.16-.04h1.32ZM143.22,58.23v-.3c.12-.02.22-.04.3-.08.08-.03.16-.08.24-.15.08-.07.14-.14.19-.21.05-.07.09-.17.14-.29.02-.06.04-.1.06-.12.02-.02.05-.03.09-.03.05,0,.09.02.11.05.02.03.03.08.03.16v.99h-1.16ZM143.2,56.45v-.32c.11-.05.19-.11.24-.17.05-.06.09-.14.11-.25.01-.07.03-.12.06-.15.02-.03.06-.04.1-.04.06,0,.1.02.12.07.01.02.02.08.02.16v1.06c0,.09-.01.15-.03.18-.02.03-.05.05-.11.05-.04,0-.08-.01-.1-.04-.02-.03-.04-.07-.06-.13-.03-.13-.08-.23-.14-.3-.06-.07-.13-.11-.23-.14ZM143.21,54.42h1.13v.99c0,.06-.01.1-.03.13-.02.03-.06.04-.11.04-.04,0-.07,0-.09-.03-.02-.02-.04-.05-.05-.1-.07-.22-.18-.38-.31-.49-.14-.11-.31-.18-.53-.2v-.33ZM142.96,54.42v3.81h-1.32c-.07,0-.12-.01-.16-.04-.04-.03-.05-.06-.05-.11,0-.08.04-.13.11-.15.06-.02.1-.03.11-.04.01,0,.02-.02.03-.03.02-.03.03-.08.03-.14v-2.8c0-.07-.01-.11-.03-.14-.01-.02-.02-.03-.03-.03,0,0-.04-.02-.11-.04-.07-.02-.11-.07-.11-.15,0-.05.02-.08.05-.11.04-.03.09-.04.16-.04h1.32ZM137.62,55.13l.14.58-.49,1.81c-.01.05-.02.1-.02.15,0,.12.05.2.16.25l.1.04c.06.03.09.07.09.14,0,.09-.07.14-.2.14h-.71c-.07,0-.12-.01-.16-.04-.04-.03-.06-.07-.06-.12,0-.05.04-.1.12-.13.08-.03.13-.06.17-.09.04-.03.07-.07.11-.11.05-.08.1-.18.13-.3l.63-2.3ZM137.81,54.42h1.13l.78,3.28c.01.06.03.11.05.15.02.04.05.06.11.09.05.02.08.04.1.06.02.02.03.05.03.08,0,.1-.07.15-.22.15h-1.39c-.06,0-.1-.01-.13-.04-.03-.03-.05-.06-.05-.11,0-.04,0-.07.02-.08.01-.02.05-.04.1-.07.04-.02.06-.04.08-.06.01-.02.02-.05.02-.08,0-.03,0-.06,0-.08l-.09-.41h-.78l.08-.33h.63l-.51-2.27.07-.27ZM135.23,58.31v-.34c.15-.01.3-.07.46-.16.09-.05.16-.13.23-.22.07-.09.12-.19.15-.3.02-.06.04-.1.06-.13.03-.03.06-.04.1-.04.04,0,.08.02.11.05.03.03.04.08.04.13,0,.08-.03.19-.1.3-.06.12-.15.23-.25.33-.12.12-.25.21-.38.27-.13.06-.27.09-.44.1ZM135.22,54.68v-.34c.09.01.16.03.22.05.06.02.16.05.31.11.1.03.16.05.19.05.05,0,.1-.02.12-.07l.04-.07s.06-.07.13-.07c.05,0,.09.01.11.04.03.03.04.07.04.13v1.16c0,.07-.02.13-.05.16-.03.03-.07.05-.11.05s-.08-.01-.11-.04c-.03-.03-.05-.08-.06-.14-.04-.15-.08-.26-.11-.35-.08-.18-.17-.32-.27-.43-.07-.07-.14-.13-.21-.17-.07-.04-.15-.07-.23-.08ZM135,54.34v.34c-.11.02-.19.07-.25.15s-.08.19-.08.34v2.43s0,.09.03.14c.02.05.04.09.07.12.03.04.06.06.1.08.03.01.08.03.14.03v.34c-.36,0-.68-.09-.94-.28-.23-.17-.41-.39-.53-.67-.12-.28-.18-.61-.18-1,0-.28.04-.54.11-.79.08-.24.19-.46.34-.63.15-.18.33-.33.53-.44.21-.11.41-.16.6-.16h.06ZM132.83,58.23h-1.32c-.07,0-.12-.01-.16-.04-.04-.03-.05-.06-.05-.11,0-.08.04-.13.11-.15.06-.02.1-.03.11-.04.01,0,.02-.02.03-.03.02-.03.03-.08.03-.14v-2.8c0-.07-.01-.11-.03-.14-.01-.02-.02-.03-.03-.03,0,0-.04-.02-.11-.04-.07-.02-.11-.07-.11-.15,0-.05.02-.08.05-.11.04-.03.09-.04.16-.04h1.39c.07,0,.12.01.15.04.04.02.06.06.06.11,0,.08-.04.13-.11.15-.06.02-.1.03-.11.04,0,0-.02.01-.03.03-.02.03-.03.08-.03.14v2.8c0,.07.01.11.03.14.01.02.02.03.03.03.01,0,.05.02.11.04.07.02.11.07.11.15,0,.05-.02.08-.06.11-.04.02-.09.04-.15.04h-.07ZM130.64,56.55l-.3-.5v-.77c0-.16-.02-.28-.07-.36-.04-.08-.12-.16-.24-.22-.04-.02-.07-.04-.08-.06-.01-.02-.02-.05-.02-.08,0-.05.02-.09.05-.11.03-.02.09-.04.16-.04h.7c.1,0,.16.01.19.04.03.03.05.07.05.11s0,.07-.03.09c-.02.02-.06.04-.13.08-.1.05-.17.13-.22.23-.04.08-.05.18-.05.31v1.27ZM127.99,55.4l.3.49v1.5c0,.13.02.24.06.32.04.08.11.15.21.21l.08.05s.07.07.07.13c0,.04-.02.08-.05.11-.03.02-.09.04-.18.04h-.65c-.17,0-.25-.05-.25-.15,0-.03,0-.06.03-.08.02-.02.06-.05.12-.08.18-.1.27-.28.27-.54v-1.99ZM129.16,54.42l1.49,2.58v1.23h-.76l-1.9-3.27c-.04-.07-.07-.12-.1-.15-.03-.03-.06-.05-.1-.06l-.11-.04s-.05-.03-.07-.05c-.02-.02-.03-.05-.03-.08,0-.03,0-.06.03-.09.02-.03.04-.05.07-.06.03-.01.12-.02.26-.02h1.22ZM125.77,53.88l-.13.22-.03.05s-.06.04-.14.04h-.4c-.09,0-.13-.02-.13-.07,0-.02.01-.05.05-.08l.54-.57c.07-.07.13-.11.18-.11h.14c.07,0,.14.04.2.11l.55.57.04.04s.01.03.01.04c0,.02,0,.04-.02.05-.01,0-.04.01-.08.01h-.46c-.05,0-.1,0-.13-.02-.03-.01-.06-.04-.08-.07l-.13-.22ZM125.07,55.13l.14.58-.49,1.81c-.01.05-.02.1-.02.15,0,.12.05.2.16.25l.1.04c.06.03.09.07.09.14,0,.09-.07.14-.2.14h-.71c-.07,0-.12-.01-.16-.04-.04-.03-.06-.07-.06-.12,0-.05.04-.1.12-.13.08-.03.13-.06.17-.09.04-.03.07-.07.11-.11.05-.08.1-.18.13-.3l.63-2.3ZM125.27,54.42h1.13l.78,3.28c.01.06.03.11.05.15.02.04.05.06.11.09.05.02.08.04.1.06.02.02.03.05.03.08,0,.1-.07.15-.22.15h-1.39c-.06,0-.1-.01-.13-.04-.03-.03-.05-.06-.05-.11,0-.04,0-.07.02-.08.01-.02.05-.04.1-.07.04-.02.06-.04.08-.06.01-.02.02-.05.02-.08,0-.03,0-.06,0-.08l-.09-.41h-.78l.08-.33h.63l-.51-2.27.07-.27ZM122.68,58.31v-.34c.15-.01.3-.07.46-.16.09-.05.16-.13.23-.22.07-.09.12-.19.15-.3.02-.06.04-.1.06-.13.03-.03.06-.04.1-.04.04,0,.08.02.11.05.03.03.04.08.04.13,0,.08-.03.19-.1.3-.06.12-.15.23-.25.33-.12.12-.25.21-.38.27-.13.06-.27.09-.44.1ZM122.67,54.68v-.34c.09.01.16.03.22.05.06.02.16.05.31.11.1.03.16.05.19.05.05,0,.1-.02.12-.07l.04-.07s.06-.07.13-.07c.05,0,.09.01.11.04.03.03.04.07.04.13v1.16c0,.07-.02.13-.05.16-.03.03-.07.05-.11.05s-.08-.01-.11-.04c-.03-.03-.05-.08-.06-.14-.04-.15-.08-.26-.11-.35-.08-.18-.17-.32-.27-.43-.07-.07-.14-.13-.21-.17-.07-.04-.15-.07-.23-.08ZM122.45,54.34v.34c-.11.02-.19.07-.25.15s-.08.19-.08.34v2.43s0,.09.03.14c.02.05.04.09.07.12.03.04.06.06.1.08.03.01.08.03.14.03v.34c-.36,0-.68-.09-.94-.28-.23-.17-.41-.39-.53-.67-.12-.28-.18-.61-.18-1,0-.28.04-.54.11-.79.08-.24.19-.46.34-.63.15-.18.33-.33.53-.44.21-.11.41-.16.6-.16h.06ZM119.45,58.23v-.3c.12-.02.22-.04.3-.08.08-.03.16-.08.24-.15.08-.07.14-.14.19-.21.05-.07.09-.17.14-.29.02-.06.04-.1.06-.12.02-.02.05-.03.09-.03.05,0,.09.02.11.05.02.03.03.08.03.16v.99h-1.16ZM119.43,56.45v-.32c.11-.05.19-.11.24-.17s.09-.14.11-.25c.01-.07.03-.12.06-.15.02-.03.06-.04.1-.04.06,0,.1.02.12.07.01.02.02.08.02.16v1.06c0,.09-.01.15-.03.18-.02.03-.05.05-.11.05-.04,0-.08-.01-.1-.04-.02-.03-.04-.07-.06-.13-.03-.13-.08-.23-.14-.3-.06-.07-.13-.11-.23-.14ZM119.44,54.42h1.13v.99c0,.06-.01.1-.03.13-.02.03-.06.04-.11.04-.04,0-.07,0-.09-.03-.02-.02-.04-.05-.05-.1-.07-.22-.18-.38-.31-.49-.14-.11-.31-.18-.53-.2v-.33ZM119.19,54.42v3.81h-1.32c-.07,0-.12-.01-.16-.04-.04-.03-.05-.06-.05-.11,0-.08.04-.13.11-.15.06-.02.1-.03.11-.04.01,0,.02-.02.03-.03.02-.03.03-.08.03-.14v-2.8c0-.07-.01-.11-.03-.14-.01-.02-.02-.03-.03-.03,0,0-.04-.02-.11-.04-.07-.02-.11-.07-.11-.15,0-.05.02-.08.05-.11.04-.03.09-.04.16-.04h1.32ZM113.69,55.7l.3.84v.84c0,.09,0,.15,0,.18,0,.04.02.08.04.12.04.08.09.14.16.18l.1.07c.07.04.11.09.11.14,0,.1-.07.14-.21.14h-.7c-.14,0-.21-.05-.21-.14,0-.03,0-.05.02-.07.01-.02.04-.04.07-.06.21-.11.31-.31.31-.58v-1.69ZM114.77,54.42l.55,1.57.24-.85v.93l-.65,2.17h-.15l-1.08-3.22c-.04-.11-.08-.18-.12-.22-.02-.02-.07-.04-.13-.05-.12-.03-.18-.08-.18-.17,0-.05.02-.09.05-.11.04-.03.09-.04.15-.04h1.31ZM115.8,54.42h1.32c.14,0,.21.05.21.15,0,.08-.04.13-.11.15-.06.02-.1.03-.11.04,0,0-.02.01-.03.03-.02.03-.03.08-.03.14v2.8c0,.07.01.11.03.14.01.02.02.03.03.03.01,0,.05.02.11.04.07.02.11.07.11.15,0,.1-.07.15-.21.15h-1.41c-.08,0-.14-.01-.19-.04-.04-.03-.06-.06-.06-.11,0-.08.04-.13.13-.15.07-.02.12-.03.13-.03.01,0,.03-.02.04-.03.03-.03.04-.09.04-.16v-3.28ZM112.12,58.23v-.31c.09-.02.16-.04.22-.06.05-.02.11-.05.15-.09.08-.06.15-.15.22-.25.07-.11.12-.23.16-.36.03-.1.06-.17.08-.2.03-.03.06-.05.11-.05.05,0,.09.02.11.06.01.02.02.06.02.12v1.14h-1.07ZM111.89,58.23h-1.32c-.07,0-.12-.01-.16-.04-.04-.03-.05-.06-.05-.11,0-.08.04-.13.11-.15.06-.02.1-.03.11-.04.01,0,.02-.02.03-.03.02-.03.03-.08.03-.14v-2.8c0-.07-.01-.11-.03-.14-.01-.02-.02-.03-.03-.03,0,0-.04-.02-.11-.04-.07-.02-.11-.07-.11-.15,0-.05.02-.08.05-.11.04-.03.09-.04.16-.04h1.41c.08,0,.14.01.18.03.05.03.07.07.07.12,0,.08-.04.13-.13.15-.07.02-.12.03-.13.03-.01,0-.03.02-.04.03-.03.03-.04.09-.04.16v3.29ZM107.86,55.13l.14.58-.49,1.81c-.01.05-.02.1-.02.15,0,.12.05.2.16.25l.1.04c.06.03.09.07.09.14,0,.09-.07.14-.2.14h-.71c-.07,0-.12-.01-.16-.04-.04-.03-.06-.07-.06-.12,0-.05.04-.1.12-.13.08-.03.13-.06.17-.09.04-.03.07-.07.11-.11.05-.08.1-.18.13-.3l.63-2.3ZM108.05,54.42h1.13l.78,3.28c.01.06.03.11.05.15.02.04.05.06.11.09.05.02.08.04.1.06.02.02.03.05.03.08,0,.1-.07.15-.22.15h-1.39c-.06,0-.1-.01-.13-.04-.03-.03-.05-.06-.05-.11,0-.04,0-.07.02-.08s.05-.04.1-.07c.04-.02.06-.04.08-.06.01-.02.02-.05.02-.08,0-.03,0-.06,0-.08l-.09-.41h-.78l.08-.33h.63l-.51-2.27.07-.27ZM103.54,54.42h.73v.34c-.09.05-.16.11-.2.19-.08.13-.13.28-.16.45l-.03.17c0,.05-.03.1-.06.13-.03.03-.07.04-.11.04s-.09-.02-.12-.05c-.03-.03-.04-.08-.04-.13v-1.14ZM106.71,54.42v1.14c0,.05-.02.1-.05.13-.03.03-.07.05-.12.05s-.09-.01-.12-.04c-.03-.03-.05-.07-.06-.13l-.03-.17c-.03-.17-.08-.32-.16-.45-.05-.08-.12-.14-.2-.19v-.34h.73ZM105.74,54.42v3.28c0,.07.01.12.04.16.01.02.03.03.04.04.01,0,.06.01.13.03.09.02.13.07.13.15,0,.05-.02.09-.07.12-.04.02-.1.03-.18.03h-1.43c-.08,0-.14-.01-.19-.04-.04-.03-.06-.06-.06-.11,0-.08.04-.13.13-.15.07-.02.12-.03.13-.03.01,0,.03-.02.04-.04.03-.03.04-.08.04-.16v-3.28h1.24ZM102.18,58.23v-.3c.12-.02.22-.04.3-.08.08-.03.16-.08.24-.15.08-.07.14-.14.19-.21.05-.07.09-.17.14-.29.02-.06.04-.1.06-.12.02-.02.05-.03.09-.03.05,0,.09.02.11.05.02.03.03.08.03.16v.99h-1.16ZM102.17,56.45v-.32c.11-.05.19-.11.24-.17.05-.06.09-.14.11-.25.01-.07.03-.12.06-.15.02-.03.06-.04.1-.04.06,0,.1.02.12.07.01.02.02.08.02.16v1.06c0,.09-.01.15-.03.18-.02.03-.05.05-.11.05-.04,0-.08-.01-.1-.04-.02-.03-.04-.07-.06-.13-.03-.13-.08-.23-.14-.3-.06-.07-.13-.11-.23-.14ZM102.18,54.42h1.13v.99c0,.06-.01.1-.03.13-.02.03-.06.04-.11.04-.04,0-.07,0-.09-.03-.02-.02-.04-.05-.05-.1-.07-.22-.18-.38-.31-.49-.14-.11-.31-.18-.53-.2v-.33ZM101.93,54.42v3.81h-1.32c-.07,0-.12-.01-.16-.04-.04-.03-.05-.06-.05-.11,0-.08.04-.13.11-.15.06-.02.1-.03.11-.04.01,0,.02-.02.03-.03.02-.03.03-.08.03-.14v-2.8c0-.07-.01-.11-.03-.14-.01-.02-.02-.03-.03-.03,0,0-.04-.02-.11-.04-.07-.02-.11-.07-.11-.15,0-.05.02-.08.05-.11.04-.03.09-.04.16-.04h1.32ZM96.42,55.7l.3.84v.84c0,.09,0,.15,0,.18,0,.04.02.08.04.12.04.08.09.14.16.18l.1.07c.07.04.11.09.11.14,0,.1-.07.14-.21.14h-.7c-.14,0-.21-.05-.21-.14,0-.03,0-.05.02-.07.01-.02.04-.04.07-.06.21-.11.31-.31.31-.58v-1.69ZM97.51,54.42l.55,1.57.24-.85v.93l-.65,2.17h-.15l-1.08-3.22c-.04-.11-.08-.18-.12-.22-.02-.02-.07-.04-.13-.05-.12-.03-.18-.08-.18-.17,0-.05.02-.09.05-.11.04-.03.09-.04.15-.04h1.31ZM98.54,54.42h1.32c.14,0,.21.05.21.15,0,.08-.04.13-.11.15-.06.02-.1.03-.11.04,0,0-.02.01-.03.03-.02.03-.03.08-.03.14v2.8c0,.07.01.11.03.14.01.02.02.03.03.03.01,0,.05.02.11.04.07.02.11.07.11.15,0,.1-.07.15-.21.15h-1.41c-.08,0-.14-.01-.19-.04-.04-.03-.06-.06-.06-.11,0-.08.04-.13.13-.15.07-.02.12-.03.13-.03.01,0,.03-.02.04-.03.03-.03.04-.09.04-.16v-3.28ZM90.74,55.7l.3.84v.84c0,.09,0,.15,0,.18,0,.04.02.08.04.12.04.08.09.14.16.18l.1.07c.07.04.11.09.11.14,0,.1-.07.14-.21.14h-.7c-.14,0-.21-.05-.21-.14,0-.03,0-.05.02-.07.01-.02.04-.04.07-.06.21-.11.31-.31.31-.58v-1.69ZM91.82,54.42l.55,1.57.24-.85v.93l-.65,2.17h-.15l-1.08-3.22c-.04-.11-.08-.18-.12-.22-.02-.02-.07-.04-.13-.05-.12-.03-.18-.08-.18-.17,0-.05.02-.09.05-.11.04-.03.09-.04.15-.04h1.31ZM92.85,54.42h1.32c.14,0,.21.05.21.15,0,.08-.04.13-.11.15-.06.02-.1.03-.11.04,0,0-.02.01-.03.03-.02.03-.03.08-.03.14v2.8c0,.07.01.11.03.14.01.02.02.03.03.03.01,0,.05.02.11.04.07.02.11.07.11.15,0,.1-.07.15-.21.15h-1.41c-.08,0-.14-.01-.19-.04-.04-.03-.06-.06-.06-.11,0-.08.04-.13.13-.15.07-.02.12-.03.13-.03.01,0,.03-.02.04-.03.03-.03.04-.09.04-.16v-3.28ZM88.89,58.23v-.3c.12-.02.22-.04.3-.08.08-.03.16-.08.24-.15.08-.07.14-.14.19-.21.05-.07.09-.17.14-.29.02-.06.04-.1.06-.12.02-.02.05-.03.09-.03.05,0,.09.02.11.05.02.03.03.08.03.16v.99h-1.16ZM88.87,56.45v-.32c.11-.05.19-.11.24-.17.05-.06.09-.14.11-.25.01-.07.03-.12.06-.15.02-.03.06-.04.1-.04.06,0,.1.02.12.07.01.02.02.08.02.16v1.06c0,.09-.01.15-.03.18-.02.03-.05.05-.11.05-.04,0-.08-.01-.1-.04-.02-.03-.04-.07-.06-.13-.03-.13-.08-.23-.14-.3-.06-.07-.13-.11-.23-.14ZM88.88,54.42h1.13v.99c0,.06-.01.1-.03.13-.02.03-.06.04-.11.04-.04,0-.07,0-.09-.03-.02-.02-.04-.05-.05-.1-.07-.22-.18-.38-.31-.49-.14-.11-.31-.18-.53-.2v-.33ZM88.64,54.42v3.81h-1.32c-.07,0-.12-.01-.16-.04-.04-.03-.05-.06-.05-.11,0-.08.04-.13.11-.15.06-.02.1-.03.11-.04.01,0,.02-.02.03-.03.02-.03.03-.08.03-.14v-2.8c0-.07-.01-.11-.03-.14-.01-.02-.02-.03-.03-.03,0,0-.04-.02-.11-.04-.07-.02-.11-.07-.11-.15,0-.05.02-.08.05-.11.04-.03.09-.04.16-.04h1.32ZM83.29,55.13l.14.58-.49,1.81c-.01.05-.02.1-.02.15,0,.12.05.2.16.25l.1.04c.06.03.09.07.09.14,0,.09-.07.14-.2.14h-.71c-.07,0-.12-.01-.16-.04-.04-.03-.06-.07-.06-.12,0-.05.04-.1.12-.13.08-.03.13-.06.17-.09.04-.03.07-.07.11-.11.05-.08.1-.18.13-.3l.63-2.3ZM83.49,54.42h1.13l.78,3.28c.01.06.03.11.05.15.02.04.05.06.11.09.05.02.08.04.1.06.02.02.03.05.03.08,0,.1-.07.15-.22.15h-1.39c-.06,0-.1-.01-.13-.04-.03-.03-.05-.06-.05-.11,0-.04,0-.07.02-.08.01-.02.05-.04.1-.07.04-.02.06-.04.08-.06.01-.02.02-.05.02-.08,0-.03,0-.06,0-.08l-.09-.41h-.78l.08-.33h.63l-.51-2.27.07-.27ZM81.74,58.23h-1.32c-.07,0-.12-.01-.16-.04-.04-.03-.05-.06-.05-.11,0-.08.04-.13.11-.15.06-.02.1-.03.11-.04.01,0,.02-.02.03-.03.02-.03.03-.08.03-.14v-2.8c0-.07-.01-.11-.03-.14-.01-.02-.02-.03-.03-.03,0,0-.04-.02-.11-.04-.07-.02-.11-.07-.11-.15,0-.05.02-.08.05-.11.04-.03.09-.04.16-.04h1.39c.07,0,.12.01.15.04.04.02.06.06.06.11,0,.08-.04.13-.11.15-.06.02-.1.03-.11.04,0,0-.02.01-.03.03-.02.03-.03.08-.03.14v2.8c0,.07.01.11.03.14.01.02.02.03.03.03.01,0,.05.02.11.04.07.02.11.07.11.15,0,.05-.02.08-.06.11-.04.02-.09.04-.15.04h-.07ZM78.74,58.31v-.34c.15-.01.3-.07.46-.16.09-.05.16-.13.23-.22.07-.09.12-.19.15-.3.02-.06.04-.1.06-.13.03-.03.06-.04.1-.04.04,0,.08.02.11.05.03.03.04.08.04.13,0,.08-.03.19-.1.3-.06.12-.15.23-.25.33-.12.12-.25.21-.38.27-.13.06-.27.09-.44.1ZM78.74,54.68v-.34c.09.01.16.03.22.05.06.02.16.05.31.11.1.03.16.05.19.05.05,0,.1-.02.12-.07l.04-.07s.06-.07.13-.07c.05,0,.09.01.11.04.03.03.04.07.04.13v1.16c0,.07-.02.13-.05.16-.03.03-.07.05-.11.05s-.08-.01-.11-.04c-.03-.03-.05-.08-.06-.14-.04-.15-.08-.26-.11-.35-.08-.18-.17-.32-.27-.43-.07-.07-.14-.13-.21-.17-.07-.04-.15-.07-.23-.08ZM78.51,54.34v.34c-.11.02-.19.07-.25.15s-.08.19-.08.34v2.43s0,.09.03.14c.02.05.04.09.07.12.03.04.06.06.1.08.03.01.08.03.14.03v.34c-.36,0-.68-.09-.94-.28-.23-.17-.41-.39-.53-.67-.12-.28-.18-.61-.18-1,0-.28.04-.54.11-.79.08-.24.19-.46.34-.63.15-.18.33-.33.53-.44.21-.11.41-.16.6-.16h.06ZM76.31,56.55l-.3-.5v-.77c0-.16-.02-.28-.07-.36-.04-.08-.12-.16-.24-.22-.04-.02-.07-.04-.08-.06-.01-.02-.02-.05-.02-.08,0-.05.02-.09.05-.11.03-.02.09-.04.16-.04h.7c.1,0,.16.01.19.04.03.03.05.07.05.11s0,.07-.03.09c-.02.02-.06.04-.13.08-.1.05-.17.13-.22.23-.04.08-.05.18-.05.31v1.27ZM73.66,55.4l.3.49v1.5c0,.13.02.24.06.32.04.08.11.15.21.21l.08.05s.07.07.07.13c0,.04-.02.08-.05.11-.03.02-.09.04-.18.04h-.65c-.17,0-.25-.05-.25-.15,0-.03,0-.06.03-.08.02-.02.06-.05.12-.08.18-.1.27-.28.27-.54v-1.99ZM74.83,54.42l1.49,2.58v1.23h-.76l-1.9-3.27c-.04-.07-.07-.12-.1-.15-.03-.03-.06-.05-.1-.06l-.11-.04s-.05-.03-.07-.05c-.02-.02-.03-.05-.03-.08,0-.03,0-.06.03-.09.02-.03.04-.05.07-.06.03-.01.12-.02.26-.02h1.22ZM71.42,53.88l-.13.22-.03.05s-.06.04-.14.04h-.4c-.09,0-.13-.02-.13-.07,0-.02.01-.05.05-.08l.54-.57c.07-.07.13-.11.18-.11h.14c.07,0,.14.04.2.11l.55.57.04.04s.01.03.01.04c0,.02,0,.04-.02.05-.01,0-.04.01-.08.01h-.46c-.05,0-.1,0-.13-.02-.03-.01-.06-.04-.08-.07l-.13-.22ZM71.78,58.23v-.3c.12-.02.22-.04.3-.08.08-.03.16-.08.24-.15.08-.07.14-.14.19-.21.05-.07.09-.17.14-.29.02-.06.04-.1.06-.12.02-.02.05-.03.09-.03.05,0,.09.02.11.05.02.03.03.08.03.16v.99h-1.16ZM71.76,56.45v-.32c.11-.05.19-.11.24-.17s.09-.14.11-.25c.01-.07.03-.12.06-.15.02-.03.06-.04.1-.04.06,0,.1.02.12.07.01.02.02.08.02.16v1.06c0,.09-.01.15-.03.18-.02.03-.05.05-.11.05-.04,0-.08-.01-.1-.04-.02-.03-.04-.07-.06-.13-.03-.13-.08-.23-.14-.3-.06-.07-.13-.11-.23-.14ZM71.78,54.42h1.13v.99c0,.06-.01.1-.03.13s-.06.04-.11.04c-.04,0-.07,0-.09-.03s-.04-.05-.05-.1c-.07-.22-.18-.38-.31-.49-.14-.11-.31-.18-.53-.2v-.33ZM71.53,54.42v3.81h-1.32c-.07,0-.12-.01-.16-.04-.04-.03-.05-.06-.05-.11,0-.08.04-.13.11-.15.06-.02.1-.03.11-.04.01,0,.02-.02.03-.03.02-.03.03-.08.03-.14v-2.8c0-.07-.01-.11-.03-.14-.01-.02-.02-.03-.03-.03,0,0-.04-.02-.11-.04-.07-.02-.11-.07-.11-.15,0-.05.02-.08.05-.11.04-.03.09-.04.16-.04h1.32ZM68.82,58.23v-.31c.09-.02.16-.04.22-.06.05-.02.11-.05.15-.09.08-.06.15-.15.22-.25.07-.11.12-.23.16-.36.03-.1.06-.17.08-.2.03-.03.06-.05.11-.05.05,0,.09.02.11.06.01.02.02.06.02.12v1.14h-1.07ZM68.59,58.23h-1.32c-.07,0-.12-.01-.16-.04-.04-.03-.05-.06-.05-.11,0-.08.04-.13.11-.15.06-.02.1-.03.11-.04.01,0,.02-.02.03-.03.02-.03.03-.08.03-.14v-2.8c0-.07-.01-.11-.03-.14-.01-.02-.02-.03-.03-.03,0,0-.04-.02-.11-.04-.07-.02-.11-.07-.11-.15,0-.05.02-.08.05-.11.04-.03.09-.04.16-.04h1.41c.08,0,.14.01.18.03.05.03.07.07.07.12,0,.08-.04.13-.13.15-.07.02-.12.03-.13.03s-.03.02-.04.03c-.03.03-.04.09-.04.16v3.29ZM65.6,58.23v-.3c.12-.02.22-.04.3-.08.08-.03.16-.08.24-.15.08-.07.14-.14.19-.21.05-.07.09-.17.14-.29.02-.06.04-.1.06-.12.02-.02.05-.03.09-.03.05,0,.09.02.11.05.02.03.03.08.03.16v.99h-1.16ZM65.58,56.45v-.32c.11-.05.19-.11.24-.17.05-.06.09-.14.11-.25.01-.07.03-.12.06-.15.02-.03.06-.04.1-.04.06,0,.1.02.12.07.01.02.02.08.02.16v1.06c0,.09-.01.15-.03.18-.02.03-.05.05-.11.05-.04,0-.08-.01-.1-.04-.02-.03-.04-.07-.06-.13-.03-.13-.08-.23-.14-.3-.06-.07-.13-.11-.23-.14ZM65.6,54.42h1.13v.99c0,.06-.01.1-.03.13-.02.03-.06.04-.11.04-.04,0-.07,0-.09-.03-.02-.02-.04-.05-.05-.1-.07-.22-.18-.38-.31-.49-.14-.11-.31-.18-.53-.2v-.33ZM65.35,54.42v3.81h-1.32c-.07,0-.12-.01-.16-.04-.04-.03-.05-.06-.05-.11,0-.08.04-.13.11-.15.06-.02.1-.03.11-.04.01,0,.02-.02.03-.03.02-.03.03-.08.03-.14v-2.8c0-.07-.01-.11-.03-.14-.01-.02-.02-.03-.03-.03,0,0-.04-.02-.11-.04-.07-.02-.11-.07-.11-.15,0-.05.02-.08.05-.11.04-.03.09-.04.16-.04h1.32ZM62.35,58.31v-.34c.15-.01.3-.07.46-.16.09-.05.16-.13.23-.22.07-.09.12-.19.15-.3.02-.06.04-.1.06-.13.03-.03.06-.04.1-.04.04,0,.08.02.11.05.03.03.04.08.04.13,0,.08-.03.19-.1.3-.06.12-.15.23-.25.33-.12.12-.25.21-.38.27-.13.06-.27.09-.44.1ZM62.35,54.68v-.34c.09.01.16.03.22.05.06.02.16.05.31.11.1.03.16.05.19.05.05,0,.1-.02.12-.07l.04-.07s.06-.07.13-.07c.05,0,.09.01.11.04.03.03.04.07.04.13v1.16c0,.07-.02.13-.05.16-.03.03-.07.05-.11.05s-.08-.01-.11-.04c-.03-.03-.05-.08-.06-.14-.04-.15-.08-.26-.11-.35-.08-.18-.17-.32-.27-.43-.07-.07-.14-.13-.21-.17-.07-.04-.15-.07-.23-.08ZM62.12,54.34v.34c-.11.02-.19.07-.25.15-.05.08-.08.19-.08.34v2.43s0,.09.03.14c.02.05.04.09.07.12.03.04.06.06.1.08.03.01.08.03.14.03v.34c-.36,0-.68-.09-.94-.28-.23-.17-.41-.39-.53-.67-.12-.28-.18-.61-.18-1,0-.28.04-.54.11-.79.08-.24.19-.46.34-.63.15-.18.33-.33.53-.44.21-.11.41-.16.6-.16h.06ZM58.05,56.87l.15.32-.17.28c-.06.1-.1.19-.1.25,0,.09.05.15.15.2.06.02.09.04.11.07.02.02.03.05.03.09,0,.05-.02.1-.07.13-.02.01-.04.02-.06.03s-.06,0-.12,0h-.72c-.06,0-.11-.01-.14-.04-.03-.03-.05-.06-.05-.11,0-.04.01-.06.03-.09.02-.02.06-.05.11-.07.14-.05.25-.14.32-.27l.5-.8ZM59.37,55.68l-.16-.31.16-.27c.04-.06.05-.11.05-.16,0-.04-.01-.08-.04-.12-.02-.04-.06-.07-.1-.09l-.1-.04s-.04-.03-.05-.05c-.01-.03-.02-.05-.02-.08,0-.04.02-.08.05-.11s.07-.04.13-.04h.81c.05,0,.1.01.13.04.04.02.05.05.05.09,0,.04-.02.08-.05.12-.01.01-.05.03-.12.07-.13.07-.24.18-.33.32l-.41.63ZM58.74,54.91l1.41,2.86c.03.07.08.11.14.14.05.03.08.05.1.07.02.02.03.05.03.09,0,.05-.02.09-.06.12-.03.03-.1.04-.2.04h-1.31c-.1,0-.17,0-.2-.02-.07-.03-.1-.08-.1-.14,0-.02,0-.04.02-.06.01-.02.04-.04.07-.07.06-.05.09-.09.09-.13,0-.03-.02-.08-.05-.14l-1.37-2.76s-.05-.08-.07-.11c-.03-.03-.06-.05-.1-.08-.04-.02-.06-.04-.08-.06-.01-.02-.02-.05-.02-.09,0-.06.02-.1.06-.12.04-.02.11-.03.22-.03h1.3c.1,0,.16.01.2.04.04.02.06.06.06.12s-.03.1-.09.14c-.03.02-.05.04-.06.05,0,.01-.01.03-.01.06,0,.03,0,.05.02.08ZM55.75,58.23v-.3c.12-.02.22-.04.3-.08.08-.03.16-.08.24-.15.08-.07.14-.14.19-.21.05-.07.09-.17.14-.29.02-.06.04-.1.06-.12.02-.02.05-.03.09-.03.05,0,.09.02.11.05.02.03.03.08.03.16v.99h-1.16ZM55.74,56.45v-.32c.11-.05.19-.11.24-.17s.09-.14.11-.25c.01-.07.03-.12.06-.15.02-.03.06-.04.1-.04.06,0,.1.02.12.07.01.02.02.08.02.16v1.06c0,.09-.01.15-.03.18-.02.03-.05.05-.11.05-.04,0-.08-.01-.1-.04-.02-.03-.04-.07-.06-.13-.03-.13-.08-.23-.14-.3-.06-.07-.13-.11-.23-.14ZM55.75,54.42h1.13v.99c0,.06-.01.1-.03.13-.02.03-.06.04-.11.04-.04,0-.07,0-.09-.03-.02-.02-.04-.05-.05-.1-.07-.22-.18-.38-.31-.49-.14-.11-.31-.18-.53-.2v-.33ZM55.5,54.42v3.81h-1.32c-.07,0-.12-.01-.16-.04-.04-.03-.05-.06-.05-.11,0-.08.04-.13.11-.15.06-.02.1-.03.11-.04.01,0,.02-.02.03-.03.02-.03.03-.08.03-.14v-2.8c0-.07-.01-.11-.03-.14-.01-.02-.02-.03-.03-.03,0,0-.04-.02-.11-.04-.07-.02-.11-.07-.11-.15,0-.05.02-.08.05-.11.04-.03.09-.04.16-.04h1.32Z"/>
  <path class="cls-2" d="M187.05,49.88v-1.43c.42-.08.75-.16.99-.26.25-.09.48-.23.7-.41.36-.28.69-.67.99-1.16s.54-1.05.73-1.65c.14-.47.26-.78.37-.92.12-.15.29-.23.51-.23.24,0,.41.1.52.29.05.09.08.28.08.56v5.21h-4.89ZM186.01,49.88h-6.03c-.31,0-.55-.06-.72-.17-.16-.12-.24-.29-.24-.5,0-.35.17-.58.51-.69.28-.09.44-.15.49-.17.05-.03.1-.08.15-.15.1-.14.15-.35.15-.65v-12.81c0-.3-.05-.52-.15-.65-.05-.08-.1-.12-.15-.14-.04-.03-.2-.09-.49-.18-.34-.11-.51-.34-.51-.69,0-.21.08-.38.24-.49.17-.12.41-.18.72-.18h6.48c.38,0,.64.05.81.15.22.14.33.32.33.54,0,.38-.2.61-.61.7-.33.08-.53.13-.59.15-.06.03-.12.08-.19.15-.13.15-.19.39-.19.72v15.05ZM176.16,49.88h-6.04c-.31,0-.55-.06-.72-.17-.16-.12-.24-.29-.24-.5,0-.35.17-.58.51-.69.28-.09.44-.15.49-.17.05-.03.1-.08.15-.15.1-.14.15-.35.15-.65v-12.81c0-.3-.05-.52-.15-.65-.05-.08-.1-.12-.15-.14-.04-.03-.2-.09-.49-.18-.34-.11-.51-.34-.51-.69,0-.21.08-.38.24-.49.17-.12.41-.18.72-.18h6.37c.31,0,.54.06.7.18.17.11.26.27.26.49,0,.35-.17.58-.51.69-.28.09-.45.15-.5.18-.04.02-.09.06-.14.14-.1.14-.15.35-.15.65v12.81c0,.3.05.52.15.65.05.08.1.13.14.15.05.02.22.07.5.17.34.11.51.34.51.69,0,.21-.09.38-.26.5-.16.11-.4.17-.7.17h-.33ZM150.92,38.29l1.36,3.87v3.85c0,.39.01.67.04.84.03.17.1.36.2.56.18.38.43.66.74.84l.47.31c.32.2.49.41.49.65,0,.44-.32.65-.96.65h-3.21c-.64,0-.96-.21-.96-.64,0-.14.03-.24.08-.31.06-.08.17-.16.33-.26.95-.51,1.42-1.4,1.42-2.66v-7.72ZM155.88,32.41l2.52,7.18,1.11-3.88v4.25l-2.96,9.92h-.68l-4.97-14.73c-.17-.49-.35-.83-.54-1-.11-.11-.3-.19-.58-.24-.55-.12-.83-.38-.83-.79,0-.22.08-.39.23-.51.16-.13.39-.19.69-.19h5.99ZM160.59,32.41h6.03c.64,0,.96.22.96.67,0,.35-.17.58-.51.69-.28.09-.45.15-.5.18-.04.02-.09.06-.14.14-.1.14-.15.35-.15.65v12.81c0,.3.05.52.15.65.05.08.1.13.14.15.05.02.22.07.5.17.34.11.51.34.51.69,0,.44-.32.67-.96.67h-6.46c-.38,0-.66-.06-.86-.17-.19-.12-.28-.29-.28-.52,0-.38.2-.61.61-.7.33-.09.53-.14.59-.15.06-.03.12-.08.18-.15.13-.15.19-.4.19-.73v-15.04ZM130.91,38.29l1.36,3.87v3.85c0,.39.01.67.04.84.03.17.1.36.2.56.18.38.43.66.74.84l.47.31c.32.2.49.41.49.65,0,.44-.32.65-.96.65h-3.21c-.64,0-.96-.21-.96-.64,0-.14.03-.24.08-.31.06-.08.17-.16.33-.26.95-.51,1.42-1.4,1.42-2.66v-7.72ZM135.88,32.41l2.52,7.18,1.11-3.88v4.25l-2.96,9.92h-.68l-4.97-14.73c-.17-.49-.35-.83-.54-1-.11-.11-.3-.19-.58-.24-.55-.12-.83-.38-.83-.79,0-.22.08-.39.23-.51.16-.13.39-.19.69-.19h5.99ZM140.59,32.41h6.03c.64,0,.96.22.96.67,0,.35-.17.58-.51.69-.28.09-.45.15-.5.18-.04.02-.09.06-.14.14-.1.14-.15.35-.15.65v12.81c0,.3.05.52.15.65.05.08.1.13.14.15.05.02.22.07.5.17.34.11.51.34.51.69,0,.44-.32.67-.96.67h-6.46c-.38,0-.66-.06-.86-.17-.19-.12-.28-.29-.28-.52,0-.38.2-.61.61-.7.33-.09.53-.14.59-.15.06-.03.12-.08.18-.15.13-.15.19-.4.19-.73v-15.04ZM126.28,49.88h-6.04c-.31,0-.55-.06-.72-.17-.16-.12-.24-.29-.24-.5,0-.35.17-.58.51-.69.28-.09.44-.15.49-.17.05-.03.1-.08.15-.15.1-.14.15-.35.15-.65v-12.81c0-.3-.05-.52-.15-.65-.05-.08-.1-.12-.15-.14-.04-.03-.2-.09-.49-.18-.34-.11-.51-.34-.51-.69,0-.21.08-.38.24-.49.17-.12.41-.18.72-.18h6.37c.31,0,.54.06.7.18.17.11.26.27.26.49,0,.35-.17.58-.51.69-.28.09-.45.15-.5.18-.04.02-.09.06-.14.14-.1.14-.15.35-.15.65v12.81c0,.3.05.52.15.65.05.08.1.13.14.15.05.02.22.07.5.17.34.11.51.34.51.69,0,.21-.09.38-.26.5-.16.11-.4.17-.7.17h-.33ZM112.39,41.31c.78.12,1.39.25,1.8.4.43.15.81.34,1.15.59.36.26.63.58.82.95.2.37.29.76.29,1.16v2.65c0,.27.09.41.27.41.07,0,.12-.02.17-.05.05-.04.12-.12.2-.23.21-.29.43-.44.65-.44.15,0,.29.08.44.23.15.15.22.31.22.46,0,.26-.13.59-.38.97-.25.38-.56.71-.93,1.01-.35.28-.73.48-1.14.6-.41.13-.89.19-1.45.19-1.13,0-2.01-.32-2.64-.96-.63-.65-.95-1.55-.95-2.7v-2.15c0-.48,0-.76-.01-.83-.04-.34-.16-.64-.36-.88-.25-.3-.6-.47-1.06-.52v-1.37c.46-.07.79-.19.99-.36.17-.15.29-.33.35-.52.07-.2.1-.49.1-.87v-3.39c0-.54-.11-.94-.32-1.2-.2-.26-.58-.47-1.13-.63v-1.42h.33c.95,0,1.75.03,2.42.1.99.09,1.87.42,2.65.97,1.12.79,1.68,1.92,1.68,3.39,0,1.2-.38,2.19-1.13,2.96-.32.32-.69.59-1.11.79-.42.2-1.06.44-1.92.69ZM108.46,32.41v15.04c0,.33.06.57.19.72.07.09.13.14.19.17.06.02.26.07.59.15.41.09.61.33.61.7,0,.22-.11.4-.33.54-.16.1-.43.15-.81.15h-6.48c-.31,0-.55-.06-.72-.17-.16-.12-.24-.29-.24-.5,0-.35.17-.58.51-.69.28-.09.44-.15.49-.17.05-.03.1-.08.15-.15.1-.14.15-.35.15-.65v-12.81c0-.3-.05-.52-.15-.65-.05-.08-.1-.12-.15-.14-.04-.03-.2-.09-.49-.18-.34-.11-.51-.34-.51-.69,0-.21.08-.38.24-.49.17-.12.41-.18.72-.18h6.03ZM93.38,43.18v-1.37c.37-.09.62-.17.77-.27.15-.09.29-.24.4-.44.18-.33.27-.78.27-1.34v-4.1c0-.4-.03-.7-.09-.9-.06-.2-.18-.38-.36-.54-.25-.24-.58-.39-1-.45v-1.38c1.76,0,3.05.17,3.89.5.96.38,1.73.97,2.29,1.77.57.81.86,1.8.86,2.98,0,1.31-.29,2.39-.87,3.23-.58.83-1.39,1.44-2.43,1.83-.86.32-2.1.47-3.72.47ZM92.3,32.41v15.04c0,.33.06.57.19.72.07.09.13.14.19.17.06.02.26.07.59.15.41.09.61.33.61.7,0,.22-.11.4-.33.54-.16.1-.43.15-.81.15h-6.48c-.31,0-.55-.06-.72-.17-.16-.12-.24-.29-.24-.5,0-.35.17-.58.51-.69.28-.09.44-.15.49-.17.05-.03.1-.08.15-.15.1-.14.15-.35.15-.65v-12.81c0-.3-.05-.52-.15-.65-.05-.08-.1-.12-.15-.14-.04-.03-.2-.09-.49-.18-.34-.11-.51-.34-.51-.69,0-.21.08-.38.24-.49.17-.12.41-.18.72-.18h6.03ZM77.49,50.22v-1.68c.85-.11,1.57-.46,2.14-1.05.65-.67.97-1.64.97-2.91v-8.34c0-1.17-.45-1.98-1.34-2.44-.26-.14-.44-.25-.52-.35-.08-.1-.12-.25-.12-.44,0-.22.08-.38.24-.47s.43-.14.79-.14h3.14c.26,0,.44,0,.52.03.09,0,.18.04.27.09.22.13.33.3.33.52,0,.19-.07.35-.2.47-.04.04-.23.16-.55.35-.38.2-.67.52-.88.95-.21.42-.32.9-.32,1.43v8.36c0,1.43-.32,2.61-.95,3.53-.46.68-1.12,1.23-1.98,1.64-.43.2-.94.35-1.54.45ZM69.18,44.77v-10.03c0-.3-.05-.52-.15-.65-.05-.08-.1-.12-.15-.14-.04-.03-.2-.09-.49-.18-.34-.11-.51-.34-.51-.68,0-.22.08-.39.24-.5.17-.12.41-.18.72-.18h6.37l.46.05c.15.04.26.12.36.23.09.11.14.24.14.4,0,.34-.17.57-.51.68-.28.09-.45.15-.5.18-.04.02-.09.06-.14.14-.1.14-.15.35-.15.65v10.74c0,.73.02,1.23.05,1.52.04.28.12.54.24.77.11.21.23.37.37.46s.4.2.78.32v1.68h-.28c-1.11,0-2.03-.1-2.76-.29-.86-.23-1.62-.57-2.27-1.02-.65-.45-1.11-.96-1.38-1.52-.29-.6-.44-1.47-.44-2.61ZM59.16,48.76v1.46c-.7,0-1.47-.2-2.32-.6-.32-.15-.53-.24-.65-.28-.12-.04-.23-.06-.35-.06-.17,0-.3.03-.38.09-.09.05-.22.19-.41.41-.15.19-.32.28-.5.28-.48,0-.72-.37-.72-1.1v-4.66c0-.24.07-.44.2-.6.14-.17.31-.26.51-.27.19,0,.33.05.44.17.11.11.2.31.28.6.2.73.48,1.42.84,2.06.38.64.81,1.18,1.31,1.63.5.46,1.08.76,1.74.88ZM60.83,33.53v-1.41c.51.03.96.1,1.33.2.38.09.91.29,1.6.58.17.07.31.1.42.1.16,0,.28-.06.36-.17l.28-.37c.14-.19.3-.28.5-.28.23,0,.4.09.5.26.11.16.17.42.17.78v4.22c0,.25-.07.45-.22.61-.14.15-.32.23-.54.23-.17,0-.33-.06-.47-.17-.08-.07-.14-.15-.19-.24-.04-.1-.09-.27-.13-.5-.09-.42-.26-.85-.49-1.29-.23-.44-.5-.84-.81-1.19-.61-.69-1.39-1.15-2.32-1.37ZM59.82,32.06v1.47c-.53.15-.93.37-1.22.68-.27.3-.41.67-.41,1.11s.12.8.35,1.13c.23.32.61.62,1.13.91.36.2,1.17.57,2.43,1.13.77.33,1.36.64,1.78.91.43.26.83.6,1.2,1,1.01,1.06,1.51,2.32,1.51,3.78,0,1.1-.27,2.11-.82,3.02-.55.91-1.3,1.63-2.25,2.15-.51.27-1.08.49-1.69.64-.61.16-1.17.24-1.7.24v-1.46c.74-.18,1.28-.43,1.6-.74.33-.32.5-.76.5-1.31s-.26-1.08-.77-1.51c-.34-.28-.99-.63-1.95-1.05-1.05-.46-1.77-.79-2.16-.99-.38-.2-.76-.43-1.11-.69-1.6-1.14-2.41-2.67-2.41-4.57,0-.97.2-1.87.6-2.69.4-.83.96-1.49,1.68-2,1-.7,2.24-1.09,3.71-1.16Z"/>
  <rect class="cls-5" x="92.55" y="22.77" width="99.43" height="2.93"/>
  <path class="cls-5" d="M86.08,21.24v-.56c.37.02.72.09,1.02.23.31.14.6.33.87.59.71.69,1.06,1.65,1.06,2.87s-.34,2.14-1.01,2.81c-.52.52-1.17.81-1.94.87v-.57c.09-.02.16-.05.21-.08.05-.03.1-.08.14-.15.09-.14.14-.36.14-.64v-4.64c0-.18-.03-.33-.09-.44-.04-.07-.09-.13-.15-.17-.06-.04-.14-.08-.24-.12ZM85.65,21.24c-.18.06-.3.15-.37.25-.07.11-.11.26-.11.47v4.64c0,.3.04.52.12.64.07.1.19.18.36.22v.57c-.77-.06-1.41-.35-1.93-.87-.68-.67-1.01-1.61-1.01-2.81,0-.6.09-1.15.26-1.63.18-.49.44-.9.79-1.24.27-.26.55-.46.86-.59.31-.14.65-.21,1.02-.23v.56ZM79.63,25.19v-.56c.15-.03.25-.07.31-.11.06-.04.12-.1.16-.18.07-.14.11-.32.11-.55v-1.66c0-.16-.01-.28-.04-.36-.02-.08-.07-.15-.15-.22-.1-.1-.24-.16-.41-.18v-.56c.71,0,1.24.07,1.58.2.39.16.7.39.93.72.23.33.35.73.35,1.21,0,.53-.12.97-.35,1.31-.24.34-.56.58-.99.74-.35.13-.85.19-1.51.19ZM79.19,20.82v6.1c0,.14.03.23.08.29.03.03.05.06.08.07.02,0,.1.03.24.06.17.04.25.13.25.29,0,.09-.05.16-.14.22-.07.04-.17.06-.33.06h-2.63c-.12,0-.22-.02-.29-.07-.07-.05-.1-.12-.1-.2,0-.14.07-.24.21-.28.11-.04.18-.06.2-.07.02-.01.04-.03.06-.06.04-.06.06-.14.06-.26v-5.2c0-.12-.02-.21-.06-.26-.02-.03-.04-.05-.06-.06-.02-.01-.08-.03-.2-.07-.14-.05-.21-.14-.21-.28,0-.09.03-.15.1-.2.07-.05.17-.07.29-.07h2.45ZM73.18,28.05v-.68c.35-.05.64-.19.87-.43.26-.27.39-.67.39-1.18v-3.39c0-.47-.18-.81-.55-.99-.11-.06-.18-.1-.21-.14-.03-.04-.05-.1-.05-.18,0-.09.03-.15.1-.19.07-.04.17-.06.32-.06h1.27c.11,0,.18,0,.21.01.04,0,.07.02.11.04.09.05.14.12.14.21,0,.08-.03.14-.08.19-.02.02-.09.06-.22.14-.15.08-.27.21-.36.38-.09.17-.13.36-.13.58v3.39c0,.58-.13,1.06-.38,1.43-.19.28-.46.5-.81.66-.17.08-.38.14-.62.18ZM69.81,25.83v-4.07c0-.12-.02-.21-.06-.26-.02-.03-.04-.05-.06-.06-.02-.01-.08-.03-.2-.07-.14-.05-.21-.14-.21-.28,0-.09.03-.16.1-.2.07-.05.17-.07.29-.07h2.59l.19.02c.06.02.11.05.15.09s.06.1.06.16c0,.14-.07.23-.21.28-.11.04-.18.06-.2.07-.02,0-.04.03-.06.06-.04.06-.06.14-.06.26v4.36c0,.29,0,.5.02.62.02.11.05.22.1.31.05.09.1.15.15.19s.16.08.32.13v.68h-.11c-.45,0-.82-.04-1.12-.12-.35-.09-.66-.23-.92-.42-.26-.18-.45-.39-.56-.62-.12-.24-.18-.6-.18-1.06ZM66.57,24.43c.32.05.56.1.73.16.17.06.33.14.47.24.15.11.26.24.33.38.08.15.12.31.12.47v1.08c0,.11.04.17.11.17.03,0,.05,0,.07-.02.02-.02.05-.05.08-.09.09-.12.17-.18.26-.18.06,0,.12.03.18.09.06.06.09.12.09.19,0,.11-.05.24-.16.39-.1.15-.23.29-.38.41-.14.11-.3.2-.46.24-.17.05-.36.08-.59.08-.46,0-.81-.13-1.07-.39-.26-.26-.38-.63-.38-1.1v-.87c0-.19,0-.31,0-.34-.02-.14-.07-.26-.15-.36-.1-.12-.24-.19-.43-.21v-.56c.19-.03.32-.08.4-.15.07-.06.12-.13.14-.21.03-.08.04-.2.04-.35v-1.38c0-.22-.04-.38-.13-.49-.08-.11-.24-.19-.46-.25v-.58h.14c.38,0,.71.01.98.04.4.04.76.17,1.08.39.45.32.68.78.68,1.38,0,.49-.15.89-.46,1.2-.13.13-.28.24-.45.32-.17.08-.43.18-.78.28ZM64.98,20.82v6.1c0,.14.03.23.08.29.03.03.05.06.08.07.02,0,.1.03.24.06.17.04.25.13.25.29,0,.09-.05.16-.14.22-.07.04-.17.06-.33.06h-2.63c-.12,0-.22-.02-.29-.07-.07-.05-.1-.12-.1-.2,0-.14.07-.24.21-.28.11-.04.18-.06.2-.07.02-.01.04-.03.06-.06.04-.06.06-.14.06-.26v-5.2c0-.12-.02-.21-.06-.26-.02-.03-.04-.05-.06-.06-.02-.01-.08-.03-.2-.07-.14-.05-.21-.14-.21-.28,0-.09.03-.15.1-.2.07-.05.17-.07.29-.07h2.45ZM61.24,27.04c-.14.14-.32.28-.56.43-.23.14-.45.25-.65.34-.19.07-.39.13-.62.18-.23.05-.42.07-.6.07v-.59c.1-.02.17-.05.22-.09.05-.03.1-.08.13-.15.06-.11.09-.24.09-.41v-1.52c0-.14-.03-.23-.08-.29-.02-.03-.05-.06-.07-.06-.02-.01-.1-.03-.24-.06-.17-.04-.25-.14-.25-.29,0-.09.04-.16.11-.21.08-.05.2-.07.35-.07h2.07c.16,0,.26.02.33.07.07.04.1.12.1.22,0,.07-.01.12-.04.17-.02.04-.07.09-.14.14-.07.05-.11.09-.13.14s-.03.12-.03.23v1.77ZM58.89,21.24v-.56c.56.05,1.03.16,1.39.31.11.05.19.07.25.07.06,0,.1-.01.12-.04.03-.03.09-.1.18-.22.06-.09.14-.13.23-.13s.16.03.2.08c.04.05.06.14.06.26v2.02c0,.26-.1.39-.29.39-.1,0-.17-.03-.22-.08-.05-.05-.09-.15-.13-.31-.05-.19-.15-.42-.28-.68-.14-.26-.26-.46-.39-.61-.14-.17-.3-.3-.48-.38-.18-.08-.4-.13-.66-.15ZM58.47,20.68v.58c-.3.07-.46.32-.46.73v4.84c0,.19.03.33.08.43.05.08.14.15.29.21v.59c-.11,0-.21,0-.31-.03-.09-.02-.21-.05-.36-.1-.36-.12-.69-.32-.99-.57-.29-.26-.54-.56-.73-.92-.29-.56-.44-1.22-.44-1.98s.13-1.39.39-1.96c.26-.57.64-1.02,1.13-1.35.28-.19.59-.33.91-.41.14-.03.29-.05.48-.05Z"/>
  <g>
    <path class="cls-1" d="M14.58,20.17l2.55,2.1s.07.06.11.06.07-.04.11-.06l1.02-.51c.41-.21.83-.35,1.27-.49.53-.17,1.06-.27,1.61-.3.4-.03.86-.12,1.26.04l-.74.36c-1.15.57-2.2,1.27-3.15,2.13l-.21.2c-.17.16-.32.31-.48.49-1.55,1.67-2.42,3.63-2.54,5.92-.02.41-.01.8,0,1.21,0,.09.04.18.02.28-.01.06.04.58.05.69.42,4.51,2.51,8.65,5.56,11.94.4.43.8.84,1.23,1.23l.3.27c2.38,2.16,5.53,3.99,8.65,4.85,1.09.3,2.17.52,3.29.59l.41.03.8.02c.5.01,1,.04,1.51,0l.41-.03c2.14-.15,4.73-.71,6.39-2.15.17-.15.32-.32.49-.48.05-.05.06-.13.14-.14.07.13.18.22.27.32l.17.19.91,1.05.69.81v.05l-.04.12-1.98,2.29h-.09s-1.06-.84-1.06-.84c-.49.37-1.02.68-1.6.91-.71.3-1.4.62-2.08.94.34,1.15.68,2.3,1.02,3.45l-.03.04-3.36,1.58s-.07,0-.1-.02l-1.86-3.31s.02-.01.02-.01c-.11.03-.22.06-.33.08-.24.04-.47.08-.71.12-1.06.16-2.14.22-3.19.02l-.62,3.54-.06.02h-.1l-4.66-1.01v-3.81s-2.03-.96-2.03-.96c-.75-.37-1.46-.76-2.15-1.22-.2-.15-.39-.28-.56-.45l-2.65,2.65-3.83-3.47-.33-.29,2.12-2.96c-.8-1.03-1.57-2.06-2.32-3.14-.31-.44-.59-.87-.85-1.34-.07-.14-.14-.27-.19-.43l-.72.1-2.63.32c-.12.01-.21.04-.33.01l-1.79-4.75,3.53-1.09c-.19-.99-.32-1.95-.41-2.93-.02-.13,0-.25-.04-.38.04-.13-.01-.25-.01-.38v-1.29s.06-.14,0-.17l-3.44-1.49v-.1l.05-.39.89-3.39s.05-.06.09-.06l3.45.97c.38-.93.84-1.83,1.42-2.66.23-.33.5-.61.81-.85-.73-.87-1.47-1.73-2.22-2.59-.03-.03-.02-.07,0-.11l2.71-1.93.15-.05h.05ZM26.9,53.8l.03,3.97,2.89.6.56-3.56.67.09c.11,0,.53.04.61.04h1.52c.09-.03.17-.01.26-.02.79-.06,1.57-.17,2.37-.32l1.92,3.33,2-.8-1.04-3.31c1.04-.35,2.02-.75,2.99-1.24.69-.35,1.35-.69,2-1.11l.93.7c.08-.06.13-.13.19-.21.12-.09.2-.21.3-.31.11-.12.22-.22.32-.34.08-.11.21-.17.27-.31-.09-.08-.15-.17-.23-.25l-.46-.48-.48-.51s-.04-.07-.07-.08c-.05-.02-.07.03-.1.06-.46.39-.95.7-1.48.99-.71.39-1.44.67-2.22.91-1.17.36-2.36.56-3.57.65-.16.01-.3.01-.45.01h-1.5c-.15,0-.29,0-.46-.01-2.6-.17-5.18-.88-7.53-2.03-5.51-2.68-10.16-7.92-12.01-13.78-.58-1.85-.9-3.83-.8-5.77.13-2.4.9-4.73,2.52-6.53.84-.94,1.76-1.64,2.87-2.21.04-.02.28-.14.14-.14-1.09.27-2.01.62-2.91,1.28l-2.48-2.06-1.71,1.27c.05.06.11.11.14.18.11.08.18.19.27.29l.28.3.25.28.25.28.28.31.25.28.24.27c.11.12.23.21.31.36-.98,1.09-1.8,2.29-2.44,3.61-.14.31-.26.58-.38.9l-3.06-.88-.66,2.57,3.13,1.3c-.02.07-.08.74-.08.74v1.63c.04.14,0,.26.03.41.09,1.17.3,2.3.64,3.43l-3.47.9,1.26,3.42,3.72-.59c.44.76.88,1.48,1.36,2.19.84,1.24,1.74,2.4,2.78,3.49l-2.06,2.97c.08.09.15.17.24.23l.41.38.41.38.41.38.43.41.39.37.46.42,2.62-2.91c1.73,1.35,3.66,2.47,5.71,3.19Z"/>
    <path class="cls-4" d="M26.92,57.77l-.03-3.97s.03,0,.03.03v3.94Z"/>
    <path class="cls-4" d="M36.61,52.3s0,.03-.03.03h-1.45s-.03-.02-.03-.03h1.5Z"/>
  </g>
  <g>
    <path class="cls-3" d="M35.95,24.21c-.59-.02-1.19-.02-1.78,0-.06.04-.15.03-.23.02-.15-.01-.29.01-.43.02l-.41.03-.33.02c-1.31.1-3.11.39-4.29,1.01-.38.2-.71.44-.97.78-.2.26-.33.58-.3.91.06.67.99,1.16,1.54,1.4,1.63.71,4.44,1.17,6.21,1.31l.35.03.4.03.38.02.31.03c.89.08,1.75.22,2.61.44,1.6.41,2.97,1.07,4.22,2.14.11.1.2.21.31.3.07.06.12.11.18.18l.3.32c1.07,1.14,1.48,2.67,1.57,4.2.03.45.04.89,0,1.34l-.03.36c-.02.27-.06.58-.12.85-.12-1.17-.78-2.28-1.54-3.13-.55-.6-1.28-1.26-2-1.64-.81-.43-1.47-.67-2.36-.9s-1.75-.4-2.65-.56l-3.32-.59c-2.01-.36-4.51-.94-6.42-1.62-1.16-.41-2.44-.98-3.39-1.78-.17-.14-.32-.31-.47-.47-.19-.21-.32-.43-.44-.69-.2-.42-.27-.86-.3-1.32-.01-.2-.03-.4,0-.6.08-.83.7-1.7,1.25-2.3.73-.79,1.61-1.41,2.56-1.91,1.39-.74,3.28-1.26,4.84-1.39l.33-.03.3-.03.38-.03.41-.02.6-.02c.45-.01.9,0,1.36-.01.12,0,.23.04.36.02.11-.02.22.01.33.02,1.39.09,3.25.54,4.58,1s2.65,1.1,3.68,2c.29.26.68.66.91.98.79,1.12,1.09,2.59,1.18,3.93.03.48,0,.95,0,1.44,0-.03-.05.56-.07.59l-.28-.64c-.47-1.1-1.18-2.08-1.97-2.99-.54-.61-1.13-1.13-1.83-1.55-1.45-.88-2.95-1.25-4.63-1.41-.12-.01-.61-.06-.69-.04-.09.02-.15-.02-.23-.03Z"/>
    <path class="cls-7" d="M35.95,24.21h-1.78c.6,0,1.2-.06,1.78,0Z"/>
  </g>
  <g>
    <path class="cls-6" d="M22.72,28.9s-.03.05-.04,0c0-.04,0-.08.02-.11h.03s0,.07,0,.11Z"/>
    <g>
      <path class="cls-9" d="M22.72,28.9c.19,1.73,1.67,3.42,3.07,4.38.96.66,2.2,1.03,3.33,1.3.79.19,1.55.33,2.35.47l3.45.62c1.94.35,4.58.98,6.41,1.67,1.11.42,2.39,1.02,3.25,1.84.51.49.85,1.1.94,1.8.11.81.15,1.22-.21,1.98-.5,1.06-1.48,2-2.43,2.66-1.67,1.15-3.69,1.81-5.7,2.03-1.56.17-3.69.25-5.23.02-1.89-.29-3.97-.86-5.66-1.76-.66-.35-1.27-.76-1.82-1.26s-1.01-1.14-1.3-1.86c-.61-1.49-.75-3.32-.57-4.92.12.28.23.55.37.83.51,1,1.13,1.93,1.86,2.78,1.92,2.21,4.62,2.95,7.47,3.05,1.39.05,2.76-.03,4.14-.2,1.03-.13,2.28-.4,3.2-.87.63-.32,1.33-.88,1.33-1.66,0-.21-.11-.41-.23-.57-1.15-1.49-6.05-2.11-7.87-2.24l-1.19-.09-.13-.02c-.91-.08-1.8-.24-2.69-.49-2.04-.57-3.84-1.65-5.12-3.35-.36-.48-.6-1.01-.79-1.58-.46-1.42-.48-3.09-.28-4.54h.04Z"/>
      <path class="cls-8" d="M31.68,38.89s-.1.02-.13-.02c.04,0,.1-.03.13.02Z"/>
    </g>
  </g>
</svg>