<?xml version="1.0" encoding="UTF-8"?>
<svg id="Camada_1" data-name="Camada 1" xmlns="http://www.w3.org/2000/svg" xmlns:xlink="http://www.w3.org/1999/xlink" viewBox="0 0 200 80">
  <defs>
    <style>
      .cls-1 {
        fill: #86a415;
      }

      .cls-1, .cls-2, .cls-3, .cls-4, .cls-5, .cls-6, .cls-7, .cls-8, .cls-9, .cls-10, .cls-11, .cls-12, .cls-13, .cls-14, .cls-15, .cls-16, .cls-17, .cls-18, .cls-19, .cls-20, .cls-21, .cls-22, .cls-23, .cls-24, .cls-25, .cls-26, .cls-27, .cls-28, .cls-29, .cls-30, .cls-31, .cls-32, .cls-33, .cls-34, .cls-35, .cls-36, .cls-37, .cls-38, .cls-39, .cls-40, .cls-41, .cls-42, .cls-43, .cls-44, .cls-45, .cls-46, .cls-47, .cls-48 {
        fill-rule: evenodd;
      }

      .cls-2 {
        fill: #638014;
      }

      .cls-3 {
        fill: #aec90b;
      }

      .cls-4 {
        fill: #749015;
      }

      .cls-5 {
        fill: #728f14;
      }

      .cls-6 {
        fill: #648114;
      }

      .cls-7 {
        fill: #98b613;
      }

      .cls-8 {
        fill: #769315;
      }

      .cls-9 {
        fill: #adc80b;
      }

      .cls-10 {
        fill: #91af14;
      }

      .cls-11 {
        fill: #9cb811;
      }

      .cls-12 {
        fill: #95b313;
      }

      .cls-13 {
        fill: #a1be11;
      }

      .cls-14 {
        fill: #829f14;
      }

      .cls-15 {
        fill: #94b113;
      }

      .cls-16 {
        fill: #aac60e;
      }

      .cls-17 {
        fill: #8ca914;
      }

      .cls-18 {
        fill: #627f13;
      }

      .cls-19 {
        fill: #a0bc11;
      }

      .cls-20 {
        fill: #87a515;
      }

      .cls-21 {
        fill: #8eac14;
      }

      .cls-22 {
        fill: #83a015;
      }

      .cls-23 {
        fill: #96b413;
      }

      .cls-24 {
        fill: #5a7813;
      }

      .cls-25 {
        fill: #6e8b15;
      }

      .cls-26 {
        fill: #8ba814;
      }

      .cls-27 {
        fill: #7f9c15;
      }

      .cls-49 {
        clip-rule: evenodd;
        fill: none;
      }

      .cls-28 {
        fill: #a7c30e;
      }

      .cls-29 {
        fill: #789515;
      }

      .cls-30 {
        fill: #6c8814;
      }

      .cls-31 {
        fill: #678415;
      }

      .cls-32 {
        fill: #5d7b14;
      }

      .cls-33 {
        fill: #759115;
      }

      .cls-34 {
        fill: #7d9a15;
      }

      .cls-35 {
        fill: #8dab14;
      }

      .cls-36 {
        fill: #7c9915;
      }

      .cls-37 {
        fill: #809d14;
      }

      .cls-38 {
        fill: #9db911;
      }

      .cls-40 {
        fill: #9eba11;
      }

      .cls-41 {
        fill: #84a215;
      }

      .cls-42 {
        fill: #5c7913;
      }

      .cls-43 {
        fill: #a9c50e;
      }

      .cls-50 {
        clip-path: url(#clippath);
      }

      .cls-44 {
        fill: #7b9714;
      }

      .cls-45 {
        fill: #a2bf11;
      }

      .cls-46 {
        fill: #5e7d14;
      }

      .cls-47 {
        fill: #a6c20e;
      }

      .cls-48 {
        fill: #90ae14;
      }
    </style>
    <clipPath id="clippath">
      <path class="cls-49" d="M76.67,17.21c1.36,2.08,2.53,4.47,3.53,7.16.14.42.26.87.37,1.31-4.85-6.81-10.84-11.42-19.71-13.71,9.85,2.95,16.29,10.46,20.6,19.07h0c-7.16,2.01-12.94,2.06-18.75-.56-9.62-4.33-10.32-12.15-14.7-20.15-.87-1.59-2.36-2.64-3.7-3.37,7.44-2.76,16.01-2.29,23.41,1.97,3.67,2.13,6.69,4.98,8.94,8.28h0ZM56.09,60.34c-2.5.12-5.15-.07-7.98-.54-.44-.09-.89-.21-1.31-.33,8.31-.8,15.31-3.67,21.72-10.2-7.49,7.04-17.2,8.87-26.82,8.28h0c1.85-7.21,4.7-12.24,9.85-15.94,8.57-6.16,15.71-2.86,24.83-2.64,1.78.05,3.46-.73,4.75-1.5-1.33,7.79-6.02,14.95-13.41,19.24-3.7,2.13-7.65,3.3-11.63,3.63h0ZM28.99,20.95c1.15-2.22,2.62-4.42,4.47-6.62.3-.35.61-.68.94-1.01-3.49,7.61-4.47,15.1-2.04,23.92-2.36-9.99.94-19.33,6.25-27.36h0c5.31,5.2,8.24,10.18,8.87,16.5,1.08,10.51-5.36,15.03-10.11,22.79-.94,1.54-1.1,3.37-1.08,4.89-6.09-5.08-9.97-12.68-9.97-21.23,0-4.26.96-8.28,2.67-11.89h0Z"/>
    </clipPath>
  </defs>
  <path class="cls-39" d="M27.75,65.71c.14,0,.24.05.35.11.11.05.22.14.27.27.05.11.11.24.11.35,0,.14-.03.24-.11.38-.05.11-.14.19-.27.24-.11.08-.22.11-.35.11s-.24-.03-.35-.11c-.14-.05-.22-.14-.27-.24-.08-.14-.11-.24-.11-.38,0-.11.03-.24.11-.35.05-.14.16-.22.27-.27.11-.05.22-.11.35-.11h0ZM47.48,65.71c.14,0,.24.05.35.11.14.05.22.14.27.27.08.11.11.24.11.35,0,.14-.03.24-.08.38-.08.11-.16.19-.27.24-.14.08-.24.11-.38.11-.11,0-.24-.03-.35-.11-.11-.05-.22-.14-.27-.24-.05-.14-.11-.24-.11-.38,0-.11.05-.24.11-.35.05-.14.16-.22.27-.27.11-.05.24-.11.35-.11h0ZM28.54,73.25v-4.84c0-.49-.24-.73-.76-.76l-.73.03c-.49,0-.73.24-.73.76,0,.46.24.7.73.7v4.11c0,.51.27.76.76.76s.73-.24.73-.76h0ZM29.51,73.25c0,.51.24.76.7.76.51,0,.76-.24.76-.76v-4.11h1.7c.49,0,.73.24.73.76v3.38c0,.49.24.73.73.73s.73-.24.73-.73v-3.35c0-1.51-.73-2.24-2.19-2.24h-2.43c-.49,0-.73.24-.73.73v4.84h0ZM40.7,68.42c0-.49-.24-.73-.73-.73h-1.95c-1.43,0-2.16.65-2.16,1.92s.73,1.97,2.19,1.97h.46c.49,0,.73.16.73.49s-.27.49-.73.49h-1.95c-.49.03-.7.27-.7.78,0,.43.22.68.7.68h1.95c1.43,0,2.16-.65,2.19-1.95,0-1.3-.73-1.95-2.19-1.95h-.49c-.46,0-.7-.16-.7-.49s.24-.49.7-.49h1.97c.46-.03.7-.27.7-.73h0ZM45.1,73.28c0-.49-.24-.73-.73-.73h-.49c-.51,0-.76-.24-.76-.73v-2.7h1.22c.49,0,.76-.24.76-.7,0-.49-.27-.73-.78-.73h-1.19v-.73c0-.49-.24-.76-.73-.73-.49,0-.73.24-.73.73v4.81c0,1.51.73,2.24,2.19,2.24h.51c.49,0,.73-.24.73-.73h0ZM48.26,73.25v-4.84c0-.49-.24-.73-.73-.76l-.73.03c-.49,0-.73.24-.73.76-.03.46.22.7.73.7v4.11c0,.51.24.76.73.76s.73-.24.73-.76h0ZM52.67,73.28c0-.49-.24-.73-.73-.73h-.49c-.51,0-.76-.24-.76-.73v-2.7h1.22c.49,0,.76-.24.76-.7,0-.49-.27-.73-.78-.73h-1.19v-.73c0-.49-.24-.76-.73-.73-.49,0-.73.24-.73.73v4.81c0,1.51.73,2.24,2.19,2.24h.51c.49,0,.73-.24.73-.73h0ZM58.99,68.42c0-.51-.24-.76-.73-.76s-.73.24-.73.76v4.14h-1.7c-.51,0-.76-.27-.76-.76v-3.38c0-.51-.24-.76-.73-.76s-.73.24-.73.73v3.38c0,1.49.73,2.24,2.19,2.24h2.46c.49,0,.73-.24.73-.73v-4.86h0ZM63.4,73.28c0-.49-.24-.73-.73-.73h-.49c-.51,0-.76-.24-.76-.73v-2.7h1.22c.49,0,.73-.24.73-.7,0-.49-.24-.73-.76-.73h-1.19v-.73c0-.49-.24-.76-.73-.73-.49,0-.73.24-.73.73v4.81c0,1.51.73,2.24,2.19,2.24h.51c.49,0,.73-.24.73-.73h0ZM64.35,69.88v1.95c0,1.46.73,2.19,2.19,2.19h1c1.46,0,2.19-.76,2.19-2.24v-1.89c0-1.46-.73-2.22-2.22-2.22h-.97c-1.46,0-2.19.76-2.19,2.22h0ZM67.51,69.15c.51,0,.76.24.76.7v1.95c0,.49-.24.76-.76.76h-.97c-.49,0-.73-.27-.73-.76v-1.92c0-.49.24-.73.73-.73h.97ZM127.46,66.01c.68-.32,1.32-.3,1.95,0,.68.32,1.32.32,1.95-.03.24-.14.38.03.38.49.03.22-.11.38-.35.49-.68.35-1.32.35-1.95.03-.68-.32-1.32-.3-1.95.05-.24.11-.35-.05-.35-.49,0-.27.11-.43.32-.54h0ZM78.63,73.28v-6.81c0-.49-.24-.73-.73-.73s-.73.24-.73.73v1.22h-1.73c-1.46,0-2.19.76-2.19,2.24v1.92c0,1.46.73,2.19,2.22,2.19h2.43c.49,0,.73-.24.73-.76h0ZM75.47,72.58c-.51,0-.76-.24-.76-.73v-1.95c0-.49.24-.76.76-.76h1.7v3.43h-1.7ZM84.92,73.31c0-.49-.22-.73-.68-.73h-2.46c-.49,0-.73-.24-.73-.76v-.24h2.19c.49,0,.73-.24.73-.7,0-.51-.24-.76-.73-.76h-2.19v-.97h3.16c.46,0,.7-.24.7-.73s-.24-.73-.73-.73h-3.86c-.49,0-.73.24-.73.73v3.38c0,1.49.73,2.24,2.19,2.24h2.43c.49,0,.7-.24.7-.73h0ZM94.06,73.31c0-.49-.24-.73-.73-.73h-2.43c-.51,0-.76-.24-.76-.76v-.24h2.22c.49,0,.73-.24.73-.7,0-.51-.24-.76-.76-.76h-2.19v-.97h3.16c.49,0,.76-.24.76-.73s-.27-.73-.78-.73h-3.86c-.49,0-.73.24-.73.73v3.38c0,1.49.73,2.24,2.19,2.24h2.46c.49,0,.73-.24.73-.73h0ZM100.41,73.28v-6.81c0-.49-.24-.73-.73-.73s-.73.24-.73.73v1.22h-1.73c-1.46,0-2.19.76-2.19,2.24v1.92c0,1.46.73,2.19,2.22,2.19h2.43c.49,0,.73-.24.73-.76h0ZM97.22,72.58c-.49,0-.73-.24-.73-.73v-1.95c0-.49.24-.76.76-.76h1.7v3.43h-1.73ZM106.73,68.42c0-.49-.22-.73-.7-.73s-.76.24-.76.73v4.13h-1.7c-.49,0-.73-.24-.73-.76v-3.38c0-.49-.24-.73-.73-.73s-.73.24-.73.73v3.35c0,1.51.73,2.24,2.19,2.24h2.43c.49,0,.73-.22.73-.7v-4.89h0ZM113.09,73.31c0-.49-.24-.73-.7-.73h-2.46c-.49,0-.73-.24-.73-.76v-1.92c0-.51.22-.76.7-.76h2.43c.51,0,.76-.24.76-.73s-.24-.73-.76-.73h-2.41c-1.46,0-2.19.76-2.19,2.22v1.89c0,1.49.73,2.24,2.19,2.24h2.43c.49,0,.73-.24.73-.73h0ZM119.41,73.28v-4.86c0-.49-.24-.7-.73-.7l-2.43-.03c-1.46,0-2.19.76-2.19,2.24v3.38c0,.49.24.73.73.73s.73-.24.73-.76l.03-1.22h2.41v1.22c0,.51.24.76.76.76.46,0,.7-.24.7-.76h0ZM115.52,70.61v-.7c0-.49.27-.76.76-.76h1.68v1.46h-2.43ZM125.79,73.31c0-.49-.24-.73-.73-.73h-2.43c-.51,0-.76-.24-.76-.76v-1.92c0-.51.24-.76.73-.76h2.43c.49,0,.76-.24.76-.73s-.27-.73-.78-.73h-2.41c-1.46,0-2.19.76-2.19,2.22v1.89c0,1.49.73,2.24,2.19,2.24h2.46c.49,0,.73-.24.73-.73h0ZM123.87,75.8c0-.14-.08-.22-.22-.22h-.7c-.16,0-.22-.08-.22-.22v-.05c0-.16.05-.24.22-.24h.35c.14,0,.22-.05.22-.22v-.49c0-.14-.05-.22-.22-.22-.14,0-.22.08-.22.22v.3h-.14c-.43,0-.65.22-.65.65v.05c0,.43.22.65.65.65h.7c.16,0,.22-.08.22-.22h0ZM132.11,73.28v-4.86c0-.49-.24-.7-.73-.7l-2.43-.03c-1.46,0-2.19.76-2.19,2.24v3.38c0,.49.24.73.73.73s.73-.24.73-.76v-1.22h2.43v1.22c0,.51.24.76.73.76s.73-.24.73-.76h0ZM128.22,70.61v-.7c0-.49.24-.76.76-.76h1.68v1.46h-2.43ZM133.11,69.9v1.92c0,1.46.7,2.19,2.16,2.19h1c1.46,0,2.19-.73,2.19-2.24v-1.89c0-1.46-.73-2.19-2.19-2.19h-.97c-1.46,0-2.19.73-2.19,2.22h0ZM136.27,69.15c.49,0,.73.24.73.73v1.95c0,.49-.24.73-.73.73h-1c-.46,0-.7-.24-.7-.73v-1.95c0-.49.24-.73.7-.73h1ZM142.22,68.44v6.81c0,.49.24.73.73.73s.73-.24.73-.73v-1.24h1.73c1.46,0,2.19-.73,2.19-2.24v-1.89c0-1.46-.73-2.19-2.22-2.19h-2.43c-.49,0-.73.24-.73.76h0ZM145.38,69.15c.51,0,.76.24.76.73v1.95c0,.49-.24.73-.76.73h-1.7v-3.41h1.7ZM148.57,69.9v1.92c0,1.46.73,2.19,2.16,2.19h1c1.46,0,2.22-.73,2.22-2.24v-1.89c0-1.46-.76-2.19-2.22-2.19h-.97c-1.46,0-2.19.73-2.19,2.22h0ZM151.73,69.15c.49,0,.73.24.73.73v1.95c0,.49-.24.73-.73.73h-.97c-.49,0-.73-.24-.73-.73v-1.95c0-.49.24-.73.73-.73h.97ZM159.79,69.63v-1.22c0-.49-.24-.7-.73-.7l-1.95-.03c-1.46,0-2.19.76-2.19,2.24v3.38c0,.49.24.73.73.73s.73-.24.73-.76v-3.38c0-.49.24-.76.73-.76h1.22v.49c0,.49.24.76.73.76s.73-.27.73-.76h0ZM164.19,73.31c0-.49-.24-.73-.73-.73h-.49c-.51,0-.76-.24-.76-.76v-2.68h1.22c.49,0,.76-.24.76-.73s-.27-.73-.78-.73h-1.19v-.73c0-.49-.24-.73-.73-.73s-.73.24-.73.73v4.84c0,1.49.73,2.24,2.19,2.24h.51c.49,0,.73-.24.73-.73h0ZM170.49,73.28v-4.86c0-.49-.24-.7-.73-.7l-2.43-.03c-1.46,0-2.19.76-2.19,2.24v3.38c0,.49.24.73.73.73s.73-.24.73-.76l.03-1.22h2.41v1.22c0,.51.24.76.76.76.49,0,.7-.24.7-.76h0ZM166.6,70.61v-.7c0-.49.27-.76.76-.76h1.68v1.46h-2.43ZM171.49,66.47v6.81c0,.49.24.73.73.73h.73c.49,0,.73-.27.73-.76.03-.46-.22-.7-.73-.7v-6.08c0-.49-.24-.76-.73-.76s-.73.27-.73.76h0Z"/>
  <path class="cls-24" d="M76.67,17.21c1.36,2.08,2.53,4.47,3.53,7.16.14.42.26.87.37,1.31-4.85-6.81-10.84-11.42-19.71-13.71,9.85,2.95,16.29,10.46,20.6,19.07h0c-7.16,2.01-12.94,2.06-18.75-.56-9.62-4.33-10.32-12.15-14.7-20.15-.87-1.59-2.36-2.64-3.7-3.37,7.44-2.76,16.01-2.29,23.41,1.97,3.67,2.13,6.69,4.98,8.94,8.28h0ZM56.09,60.34c-2.5.12-5.15-.07-7.98-.54-.44-.09-.89-.21-1.31-.33,8.31-.8,15.31-3.67,21.72-10.2-7.49,7.04-17.2,8.87-26.82,8.28h0c1.85-7.21,4.7-12.24,9.85-15.94,8.57-6.16,15.71-2.86,24.83-2.64,1.78.05,3.46-.73,4.75-1.5-1.33,7.79-6.02,14.95-13.41,19.24-3.7,2.13-7.65,3.3-11.63,3.63h0ZM28.99,20.95c1.15-2.22,2.62-4.42,4.47-6.62.3-.35.61-.68.94-1.01-3.49,7.61-4.47,15.1-2.04,23.92-2.36-9.99.94-19.33,6.25-27.36h0c5.31,5.2,8.24,10.18,8.87,16.5,1.08,10.51-5.36,15.03-10.11,22.79-.94,1.54-1.1,3.37-1.08,4.89-6.09-5.08-9.97-12.68-9.97-21.23,0-4.26.96-8.28,2.67-11.89h0Z"/>
  <g>
    <path class="cls-24" d="M101.14,48.09v-27.75c0-2.76-1.39-4.15-4.17-4.21l-4.19.07c-2.78.04-4.17,1.48-4.17,4.3-.04,2.71,1.35,4.04,4.17,4.04v23.56c0,2.82,1.43,4.23,4.26,4.23s4.1-1.41,4.1-4.23h0ZM96.74,5c.7,0,1.37.17,2.04.54.65.35,1.17.87,1.54,1.52.37.67.54,1.37.54,2.11,0,.69-.17,1.37-.52,2.04-.37.65-.89,1.15-1.54,1.52-.67.37-1.35.56-2.06.56s-1.39-.2-2.04-.56c-.65-.37-1.17-.87-1.54-1.52-.37-.67-.54-1.35-.54-2.04,0-.74.17-1.43.54-2.11.37-.65.89-1.17,1.54-1.52.67-.37,1.35-.54,2.04-.54h0ZM137.41,48.24c0-2.8-1.35-4.19-4.08-4.19l-13.99-.04c-2.84,0-4.26-1.41-4.26-4.23v-1.39l12.6-.02c2.78,0,4.17-1.37,4.15-4.06,0-2.84-1.41-4.3-4.23-4.34l-12.51.07v-5.56l18.05.02c2.82-.07,4.26-1.43,4.26-4.15s-1.46-4.17-4.37-4.15h-22.13c-2.78,0-4.17,1.39-4.17,4.17v19.22c0,8.53,4.17,12.79,12.53,12.79h13.99c2.78,0,4.17-1.37,4.17-4.13h0ZM142.99,20.4v38.98c0,2.78,1.39,4.17,4.17,4.17s4.19-1.43,4.19-4.28v-6.95h9.79c8.36,0,12.53-4.28,12.53-12.81v-10.82c0-8.38-4.19-12.57-12.57-12.57h-13.99c-2.76,0-4.13,1.43-4.13,4.28h0ZM161.11,24.52c2.82,0,4.23,1.37,4.23,4.06v11.1c0,2.84-1.41,4.28-4.23,4.28h-9.75v-19.44h9.75Z"/>
    <g class="cls-50">
      <path class="cls-24" d="M70.18,11.12c9.03,3.86,14.11,12.26,11.33,18.77-2.76,6.51-12.36,8.66-21.39,4.8-9.03-3.86-14.11-12.26-11.35-18.77,2.79-6.51,12.36-8.66,21.42-4.8h0Z"/>
      <path class="cls-42" d="M70.28,11.31c8.96,3.81,14,12.12,11.26,18.58-2.74,6.44-12.24,8.59-21.18,4.77-8.96-3.79-14-12.12-11.26-18.56,2.74-6.46,12.24-8.59,21.18-4.8h0Z"/>
      <path class="cls-32" d="M70.39,11.52c8.87,3.74,13.88,11.98,11.17,18.37-2.72,6.39-12.1,8.52-20.97,4.77-8.87-3.77-13.88-11.98-11.17-18.37,2.72-6.39,12.1-8.54,20.97-4.77h0Z"/>
      <path class="cls-46" d="M70.51,11.71c8.78,3.72,13.74,11.84,11.05,18.18-2.67,6.32-11.96,8.45-20.76,4.75-8.78-3.7-13.72-11.84-11.05-18.16,2.69-6.34,11.98-8.47,20.76-4.77h0Z"/>
      <path class="cls-18" d="M70.63,11.92c8.71,3.65,13.6,11.7,10.95,17.97-2.65,6.27-11.84,8.38-20.55,4.73-8.68-3.65-13.6-11.7-10.95-17.97,2.64-6.27,11.84-8.38,20.55-4.73h0Z"/>
      <path class="cls-2" d="M70.75,12.1c8.61,3.6,13.48,11.56,10.86,17.79-2.62,6.2-11.73,8.31-20.34,4.73-8.61-3.6-13.48-11.56-10.86-17.79,2.62-6.2,11.73-8.31,20.34-4.73h0Z"/>
      <path class="cls-6" d="M70.86,12.32c8.52,3.56,13.34,11.42,10.77,17.58-2.6,6.16-11.61,8.26-20.13,4.7-8.52-3.56-13.34-11.42-10.77-17.58,2.57-6.16,11.59-8.26,20.13-4.7h0Z"/>
      <path class="cls-6" d="M70.96,12.53c8.45,3.49,13.22,11.26,10.67,17.37-2.55,6.08-11.45,8.19-19.9,4.68-8.45-3.49-13.22-11.28-10.67-17.37,2.55-6.08,11.47-8.19,19.9-4.68h0Z"/>
      <path class="cls-31" d="M71.07,12.71c8.36,3.44,13.11,11.14,10.58,17.18-2.5,6.01-11.33,8.12-19.68,4.66-8.36-3.44-13.11-11.12-10.58-17.15,2.5-6.04,11.33-8.12,19.68-4.68h0Z"/>
      <path class="cls-31" d="M71.19,12.92c8.26,3.39,12.97,11,10.49,16.97-2.48,5.97-11.21,8.05-19.47,4.66-8.29-3.39-12.97-11-10.49-16.97,2.48-5.97,11.21-8.07,19.47-4.66h0Z"/>
      <path class="cls-30" d="M71.31,13.11c8.19,3.35,12.83,10.86,10.39,16.78-2.46,5.9-11.09,7.98-19.29,4.63-8.17-3.35-12.83-10.86-10.37-16.76,2.46-5.92,11.07-8,19.26-4.66h0Z"/>
      <path class="cls-30" d="M71.42,13.32c8.1,3.3,12.71,10.72,10.28,16.57-2.41,5.85-10.95,7.91-19.05,4.61-8.1-3.3-12.71-10.72-10.28-16.57,2.41-5.85,10.95-7.91,19.05-4.61h0Z"/>
      <path class="cls-25" d="M71.54,13.51c8.01,3.25,12.57,10.58,10.18,16.38-2.39,5.78-10.81,7.84-18.84,4.61-8.01-3.25-12.57-10.58-10.18-16.38,2.39-5.78,10.81-7.86,18.84-4.61h0Z"/>
      <path class="cls-25" d="M71.64,13.72c7.93,3.18,12.45,10.44,10.11,16.17-2.36,5.73-10.7,7.79-18.63,4.59-7.93-3.21-12.45-10.44-10.09-16.17,2.34-5.73,10.7-7.79,18.61-4.59h0Z"/>
      <path class="cls-5" d="M71.75,13.91c7.84,3.16,12.34,10.3,9.99,15.98-2.32,5.66-10.56,7.72-18.4,4.56-7.84-3.14-12.34-10.3-9.99-15.96,2.32-5.66,10.56-7.72,18.4-4.59h0Z"/>
      <path class="cls-5" d="M71.87,14.12c7.77,3.09,12.19,10.16,9.9,15.77-2.29,5.59-10.44,7.65-18.19,4.56-7.77-3.11-12.19-10.16-9.9-15.77,2.27-5.62,10.44-7.65,18.19-4.56h0Z"/>
      <path class="cls-4" d="M71.99,14.3c7.68,3.04,12.05,10.02,9.81,15.59-2.27,5.55-10.32,7.58-17.98,4.54-7.68-3.04-12.08-10.02-9.81-15.56,2.25-5.57,10.3-7.61,17.98-4.56h0Z"/>
      <path class="cls-33" d="M72.1,14.52c7.58,3,11.94,9.88,9.71,15.38-2.22,5.48-10.18,7.51-17.79,4.52-7.58-3-11.94-9.88-9.69-15.35,2.22-5.5,10.18-7.54,17.77-4.54h0Z"/>
      <path class="cls-8" d="M72.22,14.7c7.49,2.95,11.8,9.74,9.6,15.19-2.18,5.43-10.04,7.44-17.56,4.52-7.49-2.95-11.8-9.74-9.62-15.19,2.2-5.43,10.06-7.44,17.58-4.52h0Z"/>
      <path class="cls-29" d="M72.31,14.91c7.42,2.88,11.68,9.6,9.53,14.98-2.15,5.36-9.92,7.37-17.34,4.49-7.42-2.9-11.68-9.6-9.53-14.98,2.18-5.36,9.95-7.4,17.34-4.49h0Z"/>
      <path class="cls-44" d="M72.43,15.1c7.33,2.86,11.56,9.45,9.43,14.77-2.13,5.34-9.81,7.33-17.13,4.49-7.33-2.83-11.56-9.45-9.43-14.77,2.13-5.31,9.81-7.33,17.13-4.49h0Z"/>
      <path class="cls-36" d="M72.55,15.31c7.26,2.78,11.42,9.31,9.34,14.56-2.11,5.27-9.69,7.28-16.92,4.47-7.26-2.78-11.42-9.29-9.34-14.56,2.11-5.27,9.69-7.26,16.92-4.47h0Z"/>
      <path class="cls-34" d="M72.67,15.52c7.16,2.71,11.28,9.15,9.22,14.35-2.06,5.22-9.53,7.21-16.69,4.47-7.16-2.74-11.31-9.17-9.25-14.37,2.06-5.2,9.55-7.18,16.71-4.45h0Z"/>
      <path class="cls-27" d="M72.78,15.71c7.07,2.69,11.16,9.03,9.13,14.16-2.04,5.15-9.41,7.14-16.5,4.45-7.07-2.69-11.14-9.03-9.13-14.16,2.04-5.15,9.43-7.14,16.5-4.45h0Z"/>
      <path class="cls-37" d="M72.9,15.92c6.98,2.62,11.02,8.87,9.04,13.95-2.01,5.08-9.29,7.07-16.29,4.42-6.98-2.62-11.02-8.89-9.03-13.95,2.01-5.08,9.29-7.07,16.29-4.42h0Z"/>
      <path class="cls-14" d="M72.99,16.11c6.9,2.6,10.91,8.75,8.94,13.76-1.97,5.03-9.15,7-16.06,4.42-6.9-2.6-10.91-8.75-8.94-13.78,1.97-5.01,9.18-6.97,16.06-4.4h0Z"/>
      <path class="cls-22" d="M73.11,16.32c6.83,2.53,10.79,8.61,8.85,13.55-1.92,4.96-9.04,6.93-15.85,4.4-6.81-2.53-10.77-8.61-8.85-13.57,1.94-4.96,9.03-6.93,15.85-4.38h0Z"/>
      <path class="cls-41" d="M73.23,16.5c6.74,2.48,10.65,8.47,8.75,13.36-1.9,4.91-8.92,6.86-15.64,4.38-6.74-2.48-10.65-8.47-8.75-13.36,1.9-4.89,8.92-6.86,15.64-4.38h0Z"/>
      <path class="cls-1" d="M73.34,16.72c6.65,2.43,10.51,8.33,8.66,13.15-1.87,4.84-8.78,6.81-15.42,4.38-6.65-2.43-10.53-8.33-8.66-13.18,1.87-4.84,8.78-6.79,15.43-4.35h0Z"/>
      <path class="cls-20" d="M73.46,16.9c6.55,2.39,10.39,8.19,8.54,12.97-1.83,4.8-8.64,6.74-15.19,4.35-6.58-2.39-10.39-8.19-8.57-12.97,1.85-4.77,8.64-6.74,15.21-4.35h0Z"/>
      <path class="cls-26" d="M73.58,17.11c6.46,2.32,10.25,8.05,8.45,12.75-1.8,4.73-8.52,6.67-15,4.33-6.46-2.32-10.25-8.05-8.45-12.75,1.8-4.73,8.52-6.67,15-4.33h0Z"/>
      <path class="cls-17" d="M73.67,17.3c6.39,2.29,10.14,7.91,8.38,12.57-1.78,4.66-8.4,6.6-14.79,4.33-6.39-2.29-10.14-7.91-8.36-12.57,1.78-4.68,8.38-6.6,14.77-4.33h0Z"/>
      <path class="cls-35" d="M73.79,17.51c6.32,2.22,10.02,7.77,8.29,12.36-1.76,4.61-8.29,6.53-14.58,4.31-6.3-2.22-9.99-7.77-8.26-12.38,1.73-4.59,8.26-6.51,14.56-4.28h0Z"/>
      <path class="cls-21" d="M73.91,17.7c6.23,2.18,9.88,7.63,8.17,12.17-1.71,4.54-8.12,6.46-14.35,4.28-6.23-2.18-9.88-7.63-8.17-12.17,1.71-4.54,8.12-6.46,14.35-4.28h0Z"/>
      <path class="cls-48" d="M74.02,17.91c6.13,2.13,9.76,7.49,8.08,11.96-1.69,4.49-8.01,6.39-14.14,4.26-6.13-2.11-9.76-7.47-8.08-11.96,1.66-4.47,8.01-6.39,14.14-4.26h0Z"/>
      <path class="cls-10" d="M74.14,18.1c6.04,2.08,9.62,7.35,7.98,11.77-1.64,4.42-7.89,6.32-13.93,4.26-6.06-2.08-9.62-7.35-7.98-11.77,1.64-4.42,7.86-6.32,13.93-4.26h0Z"/>
      <path class="cls-15" d="M74.26,18.31c5.95,2.01,9.48,7.21,7.86,11.56-1.59,4.38-7.75,6.27-13.69,4.24-5.97-2.01-9.5-7.21-7.89-11.56,1.62-4.38,7.75-6.27,13.72-4.24h0Z"/>
      <path class="cls-12" d="M74.35,18.49c5.9,1.99,9.39,7.07,7.79,11.37-1.57,4.31-7.63,6.2-13.51,4.21-5.88-1.97-9.36-7.04-7.77-11.35,1.57-4.31,7.61-6.2,13.48-4.24h0Z"/>
      <path class="cls-23" d="M74.47,18.7c5.8,1.92,9.25,6.93,7.7,11.16-1.54,4.24-7.49,6.13-13.3,4.21-5.78-1.92-9.22-6.93-7.68-11.16,1.54-4.26,7.49-6.13,13.27-4.21h0Z"/>
      <path class="cls-7" d="M74.58,18.91c5.71,1.87,9.11,6.76,7.61,10.95-1.52,4.19-7.37,6.06-13.08,4.19-5.71-1.87-9.11-6.79-7.58-10.98,1.5-4.17,7.35-6.04,13.06-4.17h0Z"/>
      <path class="cls-11" d="M74.7,19.1c5.62,1.83,8.99,6.65,7.49,10.77-1.47,4.12-7.23,5.99-12.85,4.17-5.62-1.83-8.99-6.65-7.49-10.77,1.47-4.12,7.23-5.99,12.85-4.17h0Z"/>
      <path class="cls-38" d="M74.82,19.31c5.52,1.76,8.85,6.48,7.4,10.56-1.45,4.07-7.12,5.92-12.64,4.17-5.55-1.78-8.85-6.51-7.4-10.58,1.43-4.07,7.09-5.92,12.64-4.14h0Z"/>
      <path class="cls-40" d="M74.94,19.5c5.43,1.73,8.71,6.37,7.3,10.37-1.43,4-7,5.85-12.43,4.14-5.45-1.73-8.73-6.37-7.3-10.37,1.4-4,6.98-5.85,12.43-4.14h0Z"/>
      <path class="cls-19" d="M75.03,19.71c5.38,1.66,8.61,6.23,7.23,10.16-1.4,3.96-6.86,5.8-12.24,4.12-5.36-1.66-8.59-6.23-7.21-10.16,1.4-3.96,6.86-5.8,12.22-4.12h0Z"/>
      <path class="cls-13" d="M75.15,19.9c5.29,1.61,8.47,6.08,7.12,9.97-1.33,3.89-6.72,5.73-12.01,4.12-5.27-1.64-8.45-6.08-7.12-9.97,1.36-3.88,6.74-5.73,12.01-4.12h0Z"/>
      <path class="cls-45" d="M75.26,20.11c5.2,1.57,8.33,5.94,7.02,9.76-1.31,3.84-6.6,5.66-11.8,4.1-5.2-1.57-8.33-5.94-7.02-9.76,1.33-3.84,6.6-5.66,11.8-4.1h0Z"/>
      <path class="cls-47" d="M75.38,20.3c5.1,1.52,8.22,5.8,6.93,9.57-1.29,3.77-6.48,5.59-11.59,4.07-5.1-1.52-8.22-5.8-6.93-9.57,1.29-3.77,6.48-5.59,11.59-4.07h0Z"/>
      <path class="cls-28" d="M75.5,20.51c5.01,1.45,8.08,5.66,6.81,9.36-1.24,3.7-6.34,5.52-11.35,4.05-5.03-1.45-8.08-5.64-6.83-9.36,1.26-3.7,6.34-5.52,11.38-4.05h0Z"/>
      <path class="cls-43" d="M75.61,20.69c4.94,1.43,7.93,5.52,6.72,9.17-1.22,3.65-6.2,5.45-11.14,4.05-4.94-1.43-7.96-5.52-6.74-9.17,1.22-3.65,6.23-5.45,11.16-4.05h0Z"/>
      <path class="cls-16" d="M75.73,20.9c4.85,1.36,7.82,5.38,6.62,8.96-1.19,3.58-6.09,5.38-10.93,4.03-4.87-1.36-7.84-5.38-6.65-8.96,1.19-3.58,6.09-5.38,10.95-4.03h0Z"/>
      <path class="cls-9" d="M75.83,21.09c4.77,1.31,7.7,5.24,6.55,8.78-1.17,3.53-5.97,5.34-10.74,4-4.75-1.31-7.68-5.22-6.53-8.75,1.17-3.53,5.97-5.34,10.72-4.03h0Z"/>
      <path class="cls-3" d="M75.94,21.3c4.68,1.26,7.56,5.1,6.44,8.57-1.12,3.46-5.83,5.27-10.51,4-4.68-1.26-7.56-5.1-6.44-8.57,1.12-3.49,5.83-5.27,10.51-4h0Z"/>
      <path class="cls-24" d="M26.98,29.61c-1.17-9.76,3.56-18.35,10.6-19.21,7.02-.84,13.67,6.39,14.84,16.15,1.19,9.76-3.56,18.32-10.58,19.19-7.02.84-13.67-6.37-14.86-16.12h0Z"/>
      <path class="cls-42" d="M27.09,29.42c-1.17-9.67,3.51-18.18,10.46-19.03,6.95-.84,13.55,6.3,14.75,15.96,1.17,9.64-3.51,18.14-10.46,18.98-6.95.87-13.55-6.27-14.75-15.91h0Z"/>
      <path class="cls-32" d="M27.21,29.21c-1.17-9.55,3.44-18,10.35-18.84,6.88-.84,13.44,6.23,14.61,15.77,1.19,9.57-3.44,17.97-10.32,18.82-6.88.87-13.44-6.18-14.63-15.75h0Z"/>
      <path class="cls-46" d="M27.33,29.03c-1.17-9.45,3.39-17.81,10.21-18.65,6.83-.84,13.32,6.13,14.51,15.59,1.17,9.45-3.39,17.79-10.21,18.63-6.83.87-13.32-6.11-14.51-15.56h0Z"/>
      <path class="cls-18" d="M27.44,28.81c-1.17-9.36,3.35-17.62,10.09-18.47,6.76-.84,13.2,6.06,14.37,15.42,1.19,9.36-3.32,17.6-10.06,18.44-6.76.84-13.2-6.04-14.4-15.4h0Z"/>
      <path class="cls-2" d="M27.56,28.63c-1.17-9.27,3.28-17.46,9.97-18.3,6.67-.84,13.06,5.99,14.25,15.26,1.19,9.24-3.28,17.41-9.97,18.25-6.67.84-13.06-5.94-14.25-15.21h0Z"/>
      <path class="cls-6" d="M27.68,28.42c-1.19-9.15,3.23-17.25,9.83-18.09,6.62-.84,12.97,5.9,14.14,15.07,1.19,9.15-3.21,17.27-9.83,18.07-6.62.84-12.94-5.87-14.14-15.05h0Z"/>
      <path class="cls-6" d="M27.79,28.23c-1.19-9.06,3.16-17.08,9.71-17.93,6.55-.84,12.83,5.83,14.02,14.88,1.19,9.08-3.16,17.11-9.71,17.9-6.55.84-12.83-5.8-14.02-14.86h0Z"/>
      <path class="cls-31" d="M27.91,28.04c-1.19-8.96,3.11-16.92,9.6-17.76,6.48-.82,12.69,5.76,13.88,14.72,1.19,8.96-3.09,16.92-9.57,17.74-6.48.82-12.71-5.76-13.9-14.7h0Z"/>
      <path class="cls-31" d="M28.03,27.83c-1.19-8.87,3.04-16.71,9.46-17.55,6.41-.84,12.59,5.66,13.79,14.53,1.19,8.87-3.04,16.73-9.46,17.55-6.41.82-12.59-5.66-13.79-14.53h0Z"/>
      <path class="cls-30" d="M28.15,27.64c-1.19-8.78,3-16.55,9.34-17.39,6.34-.82,12.45,5.59,13.65,14.37,1.19,8.75-2.97,16.55-9.34,17.37-6.34.84-12.45-5.59-13.65-14.35h0Z"/>
      <path class="cls-30" d="M28.26,27.43c-1.19-8.66,2.93-16.36,9.2-17.18,6.3-.84,12.36,5.52,13.55,14.18,1.19,8.66-2.93,16.36-9.22,17.18-6.27.84-12.34-5.52-13.53-14.18h0Z"/>
      <path class="cls-25" d="M28.38,27.25c-1.19-8.57,2.88-16.2,9.08-17.01,6.2-.82,12.22,5.45,13.41,14.02,1.19,8.54-2.88,16.17-9.08,16.99-6.2.84-12.22-5.43-13.41-14h0Z"/>
      <path class="cls-25" d="M28.5,27.04c-1.19-8.45,2.81-15.98,8.96-16.83,6.13-.82,12.08,5.38,13.29,13.83,1.19,8.47-2.83,16.01-8.96,16.83-6.16.84-12.1-5.36-13.29-13.83h0Z"/>
      <path class="cls-5" d="M28.61,26.85c-1.19-8.38,2.76-15.82,8.82-16.64,6.09-.82,11.98,5.29,13.18,13.64,1.19,8.38-2.76,15.82-8.82,16.64-6.09.84-11.98-5.29-13.18-13.64h0Z"/>
      <path class="cls-5" d="M28.73,26.64c-1.19-8.26,2.69-15.63,8.71-16.45,6.02-.82,11.84,5.22,13.06,13.48,1.19,8.26-2.72,15.63-8.71,16.45-6.02.82-11.87-5.2-13.06-13.48h0Z"/>
      <path class="cls-4" d="M28.85,26.45c-1.19-8.17,2.64-15.45,8.59-16.27,5.92-.84,11.73,5.13,12.92,13.29,1.19,8.17-2.65,15.45-8.59,16.27-5.92.82-11.73-5.13-12.92-13.29h0Z"/>
      <path class="cls-33" d="M28.96,26.26c-1.19-8.07,2.57-15.28,8.45-16.1,5.88-.82,11.61,5.06,12.83,13.13,1.19,8.05-2.6,15.26-8.47,16.08-5.88.82-11.61-5.06-12.8-13.11h0Z"/>
      <path class="cls-8" d="M29.08,26.05c-1.22-7.96,2.53-15.1,8.33-15.91,5.8-.82,11.49,4.99,12.69,12.94,1.19,7.98-2.53,15.1-8.33,15.91-5.8.82-11.49-4.98-12.69-12.94h0Z"/>
      <path class="cls-29" d="M29.2,25.87c-1.22-7.89,2.46-14.91,8.19-15.73,5.73-.82,11.38,4.89,12.57,12.75,1.22,7.86-2.46,14.91-8.19,15.73-5.73.82-11.38-4.89-12.57-12.75h0Z"/>
      <path class="cls-44" d="M29.32,25.66c-1.22-7.77,2.41-14.72,8.08-15.54,5.66-.82,11.24,4.82,12.45,12.59,1.19,7.77-2.41,14.72-8.08,15.54-5.66.82-11.26-4.82-12.45-12.59h0Z"/>
      <path class="cls-36" d="M29.43,25.47c-1.22-7.68,2.34-14.56,7.96-15.38,5.59-.8,11.12,4.75,12.31,12.43,1.22,7.65-2.34,14.53-7.93,15.35-5.62.82-11.14-4.75-12.34-12.4h0Z"/>
      <path class="cls-34" d="M29.55,25.26c-1.22-7.56,2.29-14.37,7.82-15.17,5.55-.82,11,4.66,12.22,12.24,1.22,7.56-2.29,14.35-7.84,15.17-5.52.82-11-4.66-12.19-12.24h0Z"/>
      <path class="cls-27" d="M29.67,25.07c-1.22-7.47,2.22-14.18,7.7-15,5.45-.8,10.88,4.59,12.08,12.05,1.22,7.49-2.22,14.18-7.7,15-5.45.82-10.88-4.59-12.08-12.05h0Z"/>
      <path class="cls-37" d="M29.78,24.86c-1.22-7.37,2.18-14,7.58-14.79,5.38-.82,10.74,4.49,11.96,11.87,1.22,7.37-2.18,14.02-7.58,14.81-5.41.82-10.77-4.52-11.96-11.89h0Z"/>
      <path class="cls-14" d="M29.9,24.67c-1.22-7.28,2.11-13.83,7.44-14.63,5.34-.82,10.65,4.42,11.84,11.7,1.22,7.28-2.11,13.83-7.44,14.63-5.34.8-10.65-4.42-11.84-11.7h0Z"/>
      <path class="cls-22" d="M30.02,24.46c-1.22-7.16,2.06-13.62,7.33-14.44,5.27-.8,10.51,4.38,11.73,11.54,1.22,7.16-2.08,13.64-7.33,14.44-5.27.8-10.53-4.35-11.73-11.54h0Z"/>
      <path class="cls-41" d="M30.14,24.27c-1.22-7.07,1.99-13.46,7.19-14.25,5.2-.82,10.39,4.28,11.61,11.35,1.22,7.07-2.01,13.46-7.21,14.25-5.17.8-10.37-4.28-11.59-11.35h0Z"/>
      <path class="cls-1" d="M30.25,24.09c-1.22-6.97,1.94-13.29,7.07-14.09,5.13-.8,10.28,4.21,11.49,11.19,1.22,6.95-1.97,13.27-7.09,14.07-5.13.8-10.25-4.21-11.47-11.16h0Z"/>
      <path class="cls-20" d="M30.37,23.88c-1.24-6.88,1.9-13.08,6.95-13.9,5.06-.8,10.14,4.14,11.35,11,1.22,6.88-1.9,13.11-6.95,13.9-5.06.8-10.14-4.12-11.35-11h0Z"/>
      <path class="cls-26" d="M30.49,23.69c-1.24-6.79,1.83-12.92,6.81-13.71,4.99-.8,10.04,4.05,11.26,10.81,1.22,6.79-1.85,12.92-6.83,13.71-4.99.8-10.02-4.05-11.24-10.81h0Z"/>
      <path class="cls-17" d="M30.58,23.48c-1.22-6.67,1.8-12.73,6.72-13.53,4.92-.8,9.9,3.98,11.12,10.65,1.22,6.67-1.78,12.73-6.69,13.53-4.94.8-9.9-3.98-11.14-10.65h0Z"/>
      <path class="cls-35" d="M30.7,23.29c-1.22-6.58,1.73-12.54,6.6-13.34,4.85-.8,9.76,3.89,11,10.46,1.22,6.58-1.73,12.54-6.58,13.34-4.87.8-9.78-3.89-11.02-10.46h0Z"/>
      <path class="cls-21" d="M30.81,23.08c-1.22-6.46,1.69-12.36,6.46-13.15,4.8-.8,9.67,3.81,10.88,10.3,1.22,6.46-1.66,12.36-6.46,13.15-4.77.8-9.64-3.81-10.88-10.3h0Z"/>
      <path class="cls-48" d="M30.93,22.89c-1.22-6.39,1.62-12.19,6.34-12.99,4.7-.77,9.53,3.74,10.77,10.11,1.22,6.39-1.62,12.19-6.34,12.99-4.7.8-9.53-3.74-10.77-10.11h0Z"/>
      <path class="cls-10" d="M31.05,22.68c-1.22-6.27,1.57-12.01,6.2-12.78,4.66-.8,9.43,3.65,10.65,9.92,1.22,6.27-1.54,12.01-6.2,12.8-4.66.8-9.41-3.67-10.65-9.95h0Z"/>
      <path class="cls-15" d="M31.17,22.5c-1.22-6.18,1.5-11.82,6.09-12.61,4.59-.8,9.29,3.58,10.53,9.76,1.22,6.18-1.5,11.82-6.09,12.61-4.59.77-9.29-3.58-10.53-9.76h0Z"/>
      <path class="cls-12" d="M31.28,22.29c-1.22-6.06,1.45-11.63,5.97-12.43,4.52-.77,9.18,3.51,10.39,9.6,1.24,6.08-1.43,11.63-5.95,12.43-4.52.77-9.18-3.51-10.42-9.6h0Z"/>
      <path class="cls-23" d="M31.4,22.1c-1.22-5.97,1.38-11.47,5.83-12.24,4.45-.8,9.06,3.42,10.3,9.41,1.22,5.97-1.38,11.44-5.83,12.24-4.45.77-9.06-3.44-10.3-9.41h0Z"/>
      <path class="cls-7" d="M31.52,21.91c-1.22-5.9,1.33-11.28,5.71-12.08,4.38-.77,8.92,3.35,10.16,9.24,1.24,5.87-1.31,11.26-5.71,12.05-4.38.77-8.92-3.35-10.16-9.22h0Z"/>
      <path class="cls-11" d="M31.63,21.7c-1.22-5.78,1.26-11.09,5.57-11.87,4.33-.8,8.82,3.25,10.04,9.03,1.24,5.78-1.26,11.09-5.57,11.89-4.31.77-8.8-3.28-10.04-9.06h0Z"/>
      <path class="cls-38" d="M31.75,21.51c-1.24-5.69,1.22-10.93,5.45-11.7,4.24-.77,8.68,3.21,9.92,8.87,1.24,5.69-1.22,10.91-5.45,11.7-4.24.77-8.68-3.21-9.92-8.87h0Z"/>
      <path class="cls-40" d="M31.87,21.3c-1.24-5.57,1.15-10.72,5.34-11.51,4.17-.77,8.57,3.14,9.78,8.71,1.24,5.57-1.15,10.74-5.31,11.51-4.19.77-8.57-3.11-9.81-8.71h0Z"/>
      <path class="cls-19" d="M31.98,21.11c-1.24-5.48,1.1-10.56,5.2-11.33,4.12-.77,8.45,3.04,9.69,8.52,1.24,5.48-1.1,10.55-5.2,11.33-4.12.77-8.45-3.04-9.69-8.52h0Z"/>
      <path class="cls-13" d="M32.1,20.9c-1.24-5.38,1.03-10.37,5.08-11.14,4.05-.77,8.31,2.97,9.55,8.36,1.24,5.36-1.03,10.37-5.06,11.14-4.05.77-8.33-2.97-9.57-8.36h0Z"/>
      <path class="cls-45" d="M32.22,20.72c-1.24-5.29.98-10.2,4.96-10.95,3.96-.77,8.19,2.88,9.43,8.14,1.24,5.29-.98,10.2-4.96,10.98-3.96.77-8.19-2.9-9.43-8.17h0Z"/>
      <path class="cls-47" d="M32.34,20.51c-1.24-5.17.91-9.99,4.82-10.77,3.91-.77,8.08,2.81,9.32,7.98,1.24,5.2-.91,10.02-4.82,10.79-3.91.77-8.08-2.81-9.32-8h0Z"/>
      <path class="cls-28" d="M32.45,20.32c-1.24-5.08.87-9.83,4.7-10.6,3.84-.77,7.96,2.74,9.2,7.82,1.24,5.08-.87,9.83-4.7,10.6-3.84.75-7.96-2.74-9.2-7.82h0Z"/>
      <path class="cls-43" d="M32.57,20.11c-1.24-4.96.8-9.64,4.56-10.39,3.79-.77,7.84,2.64,9.08,7.63,1.24,4.98-.8,9.64-4.56,10.41-3.77.75-7.84-2.67-9.08-7.65h0Z"/>
      <path class="cls-16" d="M32.69,19.92c-1.24-4.89.75-9.45,4.45-10.23,3.7-.77,7.72,2.57,8.96,7.47,1.24,4.87-.75,9.45-4.45,10.23-3.72.75-7.72-2.57-8.96-7.47h0Z"/>
      <path class="cls-9" d="M32.8,19.73c-1.24-4.8.68-9.29,4.33-10.06,3.63-.75,7.58,2.5,8.82,7.28,1.24,4.8-.68,9.29-4.33,10.06-3.63.75-7.58-2.5-8.82-7.28h0Z"/>
      <path class="cls-3" d="M32.92,19.52c-1.24-4.68.63-9.1,4.19-9.85,3.58-.77,7.47,2.41,8.73,7.09,1.24,4.68-.63,9.1-4.21,9.88-3.56.75-7.47-2.43-8.71-7.11h0Z"/>
      <path class="cls-24" d="M64.59,57.74c-7.84,5.9-17.67,6.11-21.91.44-4.26-5.66-1.33-15.05,6.53-20.92,7.86-5.9,17.67-6.08,21.93-.42,4.26,5.64,1.31,15-6.55,20.9h0Z"/>
      <path class="cls-42" d="M64.38,57.74c-7.77,5.85-17.51,6.06-21.72.44-4.21-5.59-1.31-14.88,6.46-20.71,7.77-5.85,17.48-6.06,21.7-.44,4.21,5.59,1.33,14.86-6.44,20.71h0Z"/>
      <path class="cls-32" d="M64.15,57.74c-7.7,5.8-17.32,6.01-21.49.47-4.19-5.55-1.33-14.74,6.34-20.52,7.7-5.8,17.32-6.01,21.49-.47,4.19,5.55,1.33,14.72-6.34,20.52h0Z"/>
      <path class="cls-46" d="M63.91,57.74c-7.61,5.76-17.13,5.97-21.25.49-4.14-5.5-1.36-14.6,6.25-20.34,7.61-5.76,17.13-5.97,21.28-.49,4.14,5.48,1.33,14.58-6.27,20.34h0Z"/>
      <path class="cls-18" d="M63.68,57.74c-7.51,5.69-16.92,5.92-21.04.49-4.1-5.43-1.33-14.44,6.18-20.13,7.51-5.71,16.92-5.94,21.04-.51,4.1,5.41,1.33,14.44-6.18,20.15h0Z"/>
      <path class="cls-2" d="M63.44,57.74c-7.42,5.64-16.74,5.87-20.81.51-4.07-5.36-1.36-14.32,6.06-19.94,7.44-5.66,16.76-5.9,20.83-.54,4.07,5.36,1.36,14.3-6.09,19.96h0Z"/>
      <path class="cls-6" d="M63.23,57.74c-7.35,5.59-16.57,5.85-20.62.54-4.03-5.31-1.33-14.18,5.99-19.75,7.35-5.62,16.57-5.85,20.6-.54,4.05,5.27,1.36,14.14-5.97,19.75h0Z"/>
      <path class="cls-6" d="M63,57.72c-7.26,5.57-16.38,5.83-20.39.56-4-5.24-1.36-14.02,5.9-19.57,7.26-5.55,16.38-5.8,20.39-.54,3.98,5.22,1.36,14-5.9,19.54h0Z"/>
      <path class="cls-31" d="M62.76,57.72c-7.16,5.52-16.2,5.78-20.15.59-3.98-5.2-1.38-13.88,5.78-19.38,7.19-5.5,16.2-5.76,20.18-.56,3.96,5.17,1.36,13.85-5.8,19.35h0Z"/>
      <path class="cls-31" d="M62.53,57.72c-7.07,5.48-16.01,5.73-19.94.59-3.91-5.13-1.36-13.71,5.71-19.17,7.09-5.45,16.01-5.73,19.94-.59,3.93,5.13,1.38,13.71-5.71,19.17h0Z"/>
      <path class="cls-30" d="M62.3,57.72c-6.98,5.43-15.82,5.69-19.71.61-3.89-5.08-1.38-13.6,5.62-18.98,7-5.41,15.82-5.69,19.71-.61,3.91,5.06,1.38,13.57-5.62,18.98h0Z"/>
      <path class="cls-30" d="M62.09,57.72c-6.9,5.36-15.64,5.64-19.5.63-3.86-5.03-1.4-13.46,5.5-18.79,6.93-5.36,15.66-5.64,19.5-.63,3.86,5.01,1.4,13.43-5.5,18.79h0Z"/>
      <path class="cls-25" d="M61.85,57.72c-6.83,5.31-15.45,5.59-19.29.63-3.82-4.96-1.38-13.29,5.43-18.58,6.83-5.31,15.45-5.62,19.29-.66,3.82,4.96,1.38,13.29-5.43,18.61h0Z"/>
      <path class="cls-25" d="M61.62,57.72c-6.74,5.27-15.26,5.57-19.05.66-3.79-4.91-1.4-13.15,5.34-18.4,6.72-5.27,15.26-5.57,19.05-.66,3.79,4.87,1.4,13.13-5.34,18.4h0Z"/>
      <path class="cls-5" d="M61.38,57.72c-6.65,5.22-15.07,5.52-18.82.68-3.77-4.84-1.4-13.01,5.24-18.21,6.62-5.22,15.07-5.52,18.82-.68,3.75,4.82,1.4,12.99-5.24,18.21h0Z"/>
      <path class="cls-5" d="M61.15,57.72c-6.55,5.17-14.89,5.48-18.61.68-3.7-4.77-1.4-12.87,5.15-18.02,6.55-5.17,14.89-5.48,18.61-.68,3.72,4.77,1.43,12.85-5.15,18.02h0Z"/>
      <path class="cls-4" d="M60.94,57.72c-6.48,5.13-14.72,5.43-18.4.7-3.67-4.73-1.43-12.73,5.06-17.83,6.46-5.13,14.7-5.43,18.37-.7,3.7,4.7,1.43,12.71-5.03,17.83h0Z"/>
      <path class="cls-33" d="M60.7,57.72c-6.39,5.06-14.54,5.38-18.16.73-3.65-4.68-1.43-12.59,4.96-17.65,6.37-5.08,14.51-5.38,18.16-.73,3.63,4.66,1.43,12.57-4.96,17.65h0Z"/>
      <path class="cls-8" d="M60.47,57.72c-6.3,5.01-14.32,5.34-17.95.73-3.6-4.61-1.43-12.43,4.87-17.44,6.3-5.03,14.35-5.36,17.95-.75,3.6,4.61,1.43,12.43-4.87,17.46h0Z"/>
      <path class="cls-29" d="M60.24,57.72c-6.2,4.96-14.14,5.31-17.72.75-3.58-4.56-1.43-12.29,4.77-17.25,6.2-4.99,14.14-5.31,17.72-.75,3.58,4.52,1.45,12.26-4.77,17.25h0Z"/>
      <path class="cls-44" d="M60,57.69c-6.11,4.94-13.95,5.29-17.48.77-3.56-4.49-1.45-12.15,4.68-17.04,6.11-4.94,13.95-5.29,17.48-.77,3.56,4.47,1.45,12.12-4.68,17.04h0Z"/>
      <path class="cls-36" d="M59.79,57.69c-6.04,4.89-13.79,5.24-17.3.8-3.49-4.45-1.45-12.01,4.59-16.85,6.04-4.89,13.79-5.24,17.3-.8,3.49,4.42,1.43,11.98-4.59,16.85h0Z"/>
      <path class="cls-34" d="M59.56,57.69c-5.97,4.84-13.6,5.2-17.06.82-3.46-4.4-1.45-11.87,4.49-16.66,5.95-4.84,13.6-5.2,17.06-.82,3.46,4.35,1.45,11.84-4.49,16.66h0Z"/>
      <path class="cls-27" d="M59.32,57.69c-5.88,4.8-13.41,5.15-16.83.82-3.44-4.33-1.47-11.7,4.4-16.48,5.85-4.77,13.39-5.15,16.83-.82,3.44,4.31,1.45,11.7-4.4,16.48h0Z"/>
      <path class="cls-37" d="M59.09,57.69c-5.78,4.73-13.22,5.1-16.62.84-3.39-4.26-1.47-11.56,4.31-16.29,5.78-4.73,13.22-5.1,16.62-.84,3.39,4.26,1.47,11.56-4.31,16.29h0Z"/>
      <path class="cls-14" d="M58.86,57.69c-5.69,4.68-13.01,5.08-16.38.87-3.37-4.21-1.47-11.44,4.21-16.1,5.69-4.68,13.04-5.06,16.38-.84,3.37,4.19,1.47,11.4-4.21,16.08h0Z"/>
      <path class="cls-22" d="M58.64,57.69c-5.62,4.63-12.85,5.03-16.17.87-3.35-4.14-1.5-11.28,4.12-15.89,5.59-4.63,12.83-5.03,16.17-.87,3.32,4.12,1.47,11.26-4.12,15.89h0Z"/>
      <path class="cls-41" d="M58.41,57.69c-5.52,4.59-12.66,4.98-15.96.89-3.3-4.1-1.47-11.14,4.03-15.7,5.52-4.59,12.66-4.98,15.96-.89,3.28,4.07,1.47,11.12-4.03,15.7h0Z"/>
      <path class="cls-1" d="M58.18,57.69c-5.43,4.54-12.48,4.94-15.73.91-3.25-4.05-1.5-11,3.93-15.54,5.43-4.52,12.48-4.91,15.73-.89,3.25,4.03,1.5,10.98-3.93,15.52h0Z"/>
      <path class="cls-20" d="M57.94,57.69c-5.34,4.49-12.29,4.89-15.52.91-3.21-3.98-1.5-10.84,3.86-15.33,5.34-4.47,12.29-4.89,15.5-.91,3.23,3.96,1.5,10.84-3.84,15.33h0Z"/>
      <path class="cls-26" d="M57.71,57.69c-5.24,4.42-12.1,4.84-15.28.94-3.18-3.93-1.5-10.72,3.74-15.14,5.27-4.42,12.1-4.84,15.28-.94,3.21,3.91,1.52,10.7-3.75,15.14h0Z"/>
      <path class="cls-17" d="M57.47,57.69c-5.15,4.38-11.91,4.82-15.05.96-3.16-3.88-1.52-10.58,3.65-14.98,5.17-4.35,11.91-4.8,15.07-.91,3.14,3.84,1.5,10.53-3.67,14.93h0Z"/>
      <path class="cls-35" d="M57.26,57.67c-5.08,4.35-11.75,4.8-14.86.98-3.11-3.81-1.52-10.41,3.58-14.77,5.08-4.31,11.73-4.75,14.84-.96,3.11,3.79,1.52,10.41-3.56,14.74h0Z"/>
      <path class="cls-21" d="M57.03,57.67c-5.01,4.31-11.54,4.75-14.63,1.01-3.09-3.74-1.52-10.27,3.46-14.58,5.01-4.26,11.56-4.7,14.63-.98,3.09,3.74,1.52,10.27-3.46,14.56h0Z"/>
      <path class="cls-48" d="M56.8,57.67c-4.92,4.26-11.35,4.7-14.4,1.01-3.04-3.67-1.54-10.11,3.37-14.37,4.92-4.21,11.35-4.68,14.4-1.01,3.04,3.7,1.54,10.13-3.37,14.37h0Z"/>
      <path class="cls-10" d="M56.56,57.67c-4.82,4.21-11.17,4.66-14.18,1.03-3-3.63-1.52-9.99,3.3-14.18,4.82-4.17,11.16-4.63,14.18-1.03,3,3.63,1.52,9.99-3.3,14.18h0Z"/>
      <path class="cls-15" d="M56.33,57.67c-4.73,4.17-10.98,4.61-13.95,1.05-2.97-3.58-1.54-9.85,3.18-14,4.75-4.12,11-4.59,13.97-1.05,2.97,3.58,1.54,9.85-3.21,14h0Z"/>
      <path class="cls-12" d="M56.12,57.67c-4.66,4.1-10.81,4.59-13.74,1.05-2.95-3.51-1.57-9.69,3.09-13.78,4.66-4.1,10.79-4.56,13.74-1.05,2.93,3.51,1.54,9.69-3.09,13.78h0Z"/>
      <path class="cls-23" d="M55.88,57.67c-4.56,4.05-10.63,4.54-13.53,1.08-2.9-3.46-1.54-9.55,3.02-13.6,4.56-4.05,10.6-4.52,13.51-1.08,2.9,3.44,1.57,9.55-3,13.6h0Z"/>
      <path class="cls-7" d="M55.65,57.67c-4.47,4-10.44,4.49-13.29,1.1-2.88-3.42-1.57-9.41,2.9-13.41,4.49-4,10.44-4.49,13.29-1.1,2.88,3.39,1.57,9.41-2.9,13.41h0Z"/>
      <path class="cls-11" d="M55.41,57.67c-4.38,3.96-10.23,4.45-13.06,1.1-2.83-3.35-1.57-9.27,2.81-13.22,4.38-3.93,10.25-4.42,13.08-1.1,2.83,3.35,1.57,9.27-2.83,13.22h0Z"/>
      <path class="cls-38" d="M55.18,57.67c-4.28,3.91-10.04,4.4-12.85,1.12-2.79-3.3-1.57-9.13,2.74-13.04,4.28-3.88,10.04-4.38,12.85-1.12,2.79,3.3,1.57,9.13-2.74,13.04h0Z"/>
      <path class="cls-40" d="M54.97,57.67c-4.21,3.86-9.88,4.35-12.64,1.15-2.76-3.23-1.59-8.99,2.62-12.85,4.21-3.84,9.88-4.35,12.64-1.15,2.76,3.23,1.59,8.99-2.62,12.85h0Z"/>
      <path class="cls-19" d="M54.74,57.67c-4.14,3.79-9.69,4.33-12.41,1.15-2.74-3.16-1.59-8.82,2.53-12.64,4.12-3.79,9.69-4.31,12.41-1.17,2.74,3.18,1.59,8.85-2.53,12.66h0Z"/>
      <path class="cls-13" d="M54.5,57.67c-4.05,3.74-9.5,4.28-12.19,1.17-2.69-3.11-1.59-8.68,2.46-12.45,4.03-3.74,9.5-4.26,12.17-1.17,2.69,3.11,1.62,8.68-2.43,12.45h0Z"/>
      <path class="cls-45" d="M54.27,57.65c-3.96,3.72-9.32,4.26-11.96,1.19-2.67-3.04-1.62-8.54,2.34-12.24,3.96-3.7,9.32-4.24,11.98-1.19,2.64,3.04,1.59,8.54-2.36,12.24h0Z"/>
      <path class="cls-47" d="M54.03,57.65c-3.86,3.67-9.13,4.21-11.73,1.22-2.62-3-1.62-8.4,2.25-12.05,3.86-3.67,9.13-4.19,11.75-1.22,2.62,3,1.62,8.4-2.27,12.05h0Z"/>
      <path class="cls-28" d="M53.82,57.65c-3.79,3.63-8.94,4.17-11.54,1.24-2.57-2.95-1.62-8.26,2.18-11.87,3.77-3.63,8.94-4.14,11.52-1.24,2.6,2.95,1.62,8.26-2.15,11.87h0Z"/>
      <path class="cls-43" d="M53.59,57.65c-3.7,3.58-8.75,4.12-11.31,1.24-2.55-2.88-1.62-8.1,2.06-11.68,3.7-3.56,8.75-4.12,11.31-1.24,2.55,2.88,1.64,8.12-2.06,11.68h0Z"/>
      <path class="cls-16" d="M53.35,57.65c-3.6,3.53-8.57,4.1-11.09,1.26-2.5-2.83-1.62-7.96,1.99-11.49,3.6-3.51,8.57-4.07,11.09-1.26,2.5,2.83,1.62,7.98-1.99,11.49h0Z"/>
      <path class="cls-9" d="M53.12,57.65c-3.51,3.46-8.38,4.05-10.86,1.29-2.48-2.78-1.64-7.84,1.9-11.3,3.51-3.46,8.38-4.05,10.86-1.26,2.48,2.76,1.64,7.82-1.9,11.28h0Z"/>
      <path class="cls-3" d="M52.89,57.65c-3.42,3.42-8.19,4-10.63,1.29-2.46-2.69-1.64-7.68,1.78-11.09,3.44-3.42,8.22-4,10.65-1.29,2.43,2.69,1.64,7.68-1.8,11.09h0Z"/>
    </g>
  </g>
</svg>