<?xml version="1.0" encoding="UTF-8"?>
<svg id="Camada_1" data-name="Camada 1" xmlns="http://www.w3.org/2000/svg" viewBox="0 0 200 80">
  <defs>
    <style>
      .cls-1 {
        fill: #fe0202;
      }

      .cls-2 {
        fill: #fe0000;
      }
    </style>
  </defs>
  <g>
    <path class="cls-2" d="M142.25,57.07c-.3.77-2.58.38-3.72.42-1.28-2.34-2.73-4.44-4.4-6.54-.98-.63-2.1-.75-3.01-.54.39,2.35.06,4.48.18,6.86-1.08.43-2.18.34-3.44.09l-.04-16.77,8.08-.04c2.59-.01,4.83,1.32,5.29,3.82.43,2.34-.76,4.75-3.34,5.7l1.57,2.23c.21.3,2.86,4.66,2.81,4.79ZM137.7,45.88c-.04-.77-.42-1.84-1.49-1.85l-4.9-.02v3.75c2.07-.24,6.54.85,6.39-1.88Z"/>
    <path class="cls-2" d="M110.74,50.27l-8.28.08v4.29s9.19.08,9.19.08c-.32,1-.3,1.74,0,2.76l-12.66.06v-16.96s12.38,0,12.38,0c.02,1.17.13,2.18-.1,3.39l-8.8.07v3.15s8.32,0,8.32,0c.04,1.01.09,1.83-.06,3.09Z"/>
    <path class="cls-2" d="M81.63,47.16c.14,1.01.08,1.82,0,3.03l-8.3-.14v4.58s9.05.06,9.05.06c.28.97.28,1.79,0,2.78h-12.49s-.04-16.92-.04-16.92l12.42.05c-.05,1.32.11,2.22-.14,3.36-2.97.06-6.34.17-8.73-.11.4,1.14.12,2.14.19,3.32h8.02Z"/>
    <path class="cls-2" d="M66.85,54.95c-2.21,3.89-8.88,3.46-11,1.32-1.19-1.2-1.75-2.81-1.87-4.47h3.48c.46,1.94,1.78,3.14,3.77,2.88.83-.11,1.55-.13,2.03-.76,3.02-3.92-4.79-2.56-7.45-5.85-1.26-1.57-1.28-3.72-.35-5.24,1.88-3.06,6.6-2.69,8.97-1.44,1.61.85,2.77,2.34,2.51,4.27-1.12.12-2.17.17-3.29-.04-.34-1.86-1.85-2.48-3.58-2.16-.81.15-1.66.23-1.77.97-.4,2.71,3.64,1.95,7.06,3.81,2.31,1.26,2.81,4.37,1.48,6.7Z"/>
    <path class="cls-2" d="M176.47,53.82l-6.17-.02-1.12,3.34c-1.27.22-2.5.07-3.82.08l6-16.32,3.65-.06,6.5,16.32c-1.22-.02-2.64.4-3.67-.08-.8-.64-.9-2.21-1.36-3.25ZM175.09,50.6l-1.81-5.17-1.99,5.14,3.8.03Z"/>
    <path class="cls-2" d="M155.13,54.1c1.86,1.34,4.21.41,5.25-1.52.17-.32.5-1.09.89-1.05,1.05.1,1.84.57,2.96.95-.86,1.95-2.21,3.91-4.31,4.82-3.82,1.65-8.04-.33-9.53-4.19-1.39-3.61-.57-7.77,2.05-10.72,1.64-1.84,4.14-2.19,6.55-1.72,2.15.42,4.19,2.13,4.92,4.63-.78.28-2.21,1.11-3.06.57s-1.25-1.84-2.36-2.25-2.4-.15-3.35.65c-2.31,1.95-3.11,7.62-.03,9.83Z"/>
    <path class="cls-2" d="M121.2,57.34c-1.31.33-2.4.26-3.73.04l.09-13.58-4.7-.06c-.02-1.06-.12-1.98.11-3.11l12.57-.04c.48.94.35,2.01.12,3.07l-4.46.11v13.59Z"/>
    <path class="cls-2" d="M96.63,54.63c.13,1.01.06,1.87.03,2.89h-11.51s0-16.64,0-16.64h3.75s0,13.76,0,13.76h7.73Z"/>
    <path class="cls-2" d="M51.99,57.16c-1.2.16-2.26.06-3.47.05v-16.61s3.47,0,3.47,0v16.57Z"/>
    <path class="cls-2" d="M147.45,57.12c-1.22.23-2.27.1-3.46.09v-16.61s3.47,0,3.47,0v16.53Z"/>
  </g>
  <path class="cls-2" d="M108.24,36.02c-1.25,1.54-2.68,4.13-4.99,3.35l1.59-3.36c1.17-.07,2.17-.05,3.39.01Z"/>
  <g>
    <path class="cls-1" d="M43.32,20.2l-24.82-.03.19,19.94.16,19.72,24.49-.06-.02-39.57ZM30.64,23.04c3.42-.01,6.04,2.63,6.01,5.88-.03,3.24-2.76,5.95-6.33,5.75-3.36-.19-5.71-2.9-5.62-5.99.09-3.1,2.64-5.63,5.93-5.64ZM40.83,55.57l-18.54.06c-.49,0-.7-.21-.7-.55,0-1.04,2.77-.28,4.08-.59l.1-17.17c-1.01-.39-4.24.43-4.16-.61,0-.13.07-.43.39-.43h17.86c.28,0,.42.12.45.22.06.16.1.65-.18.66l-3.85.15v17.07s4.62.12,4.62.12c.2,0,.33,1.06-.07,1.06Z"/>
    <path class="cls-1" d="M29.31,40.03l-1.38,6.36,2.04.23-.85,5.07,3.89-7.23-1.48-.25,1.51-4.2c-1.41-.09-2.51-.12-3.73.02Z"/>
    <path class="cls-1" d="M31.51,30.64c1.04-.44,1.5-1.67,1-2.74-.43-.91-1.57-1.39-2.66-1-1.19.43-1.63,1.73-1.13,2.79.47,1,1.73,1.39,2.78.95Z"/>
  </g>
</svg>